<svg xmlns="http://www.w3.org/2000/svg" xmlns:xlink="http://www.w3.org/1999/xlink" width="1080" zoomAndPan="magnify" viewBox="0 0 810 809.999993" height="1080" preserveAspectRatio="xMidYMid meet" version="1.0"><defs><clipPath id="0c327343fa"><path d="M 542 170 L 808.964844 170 L 808.964844 684 L 542 684 Z M 542 170 " clip-rule="nonzero"/></clipPath><clipPath id="af80dd779e"><path d="M 90 17 L 539 17 L 539 793.109375 L 90 793.109375 Z M 90 17 " clip-rule="nonzero"/></clipPath><clipPath id="73d202b164"><path d="M 1.214844 324 L 155 324 L 155 493 L 1.214844 493 Z M 1.214844 324 " clip-rule="nonzero"/></clipPath><clipPath id="7a3cab20c3"><path d="M 216 646 L 375 646 L 375 793.109375 L 216 793.109375 Z M 216 646 " clip-rule="nonzero"/></clipPath><clipPath id="dbaa7525ef"><path d="M 1.214844 433 L 155 433 L 155 493 L 1.214844 493 Z M 1.214844 433 " clip-rule="nonzero"/></clipPath><clipPath id="9c8170aa4f"><path d="M 302 646 L 375 646 L 375 793.109375 L 302 793.109375 Z M 302 646 " clip-rule="nonzero"/></clipPath><clipPath id="0e53b97b0c"><path d="M 651 170 L 808.964844 170 L 808.964844 608 L 651 608 Z M 651 170 " clip-rule="nonzero"/></clipPath><clipPath id="f46eebe8be"><path d="M 744 421 L 808.964844 421 L 808.964844 496 L 744 496 Z M 744 421 " clip-rule="nonzero"/></clipPath><clipPath id="04c5b5d3f3"><path d="M 714 415 L 808.964844 415 L 808.964844 437 L 714 437 Z M 714 415 " clip-rule="nonzero"/></clipPath><clipPath id="61ff4dbc09"><path d="M 1.214844 448 L 70 448 L 70 493 L 1.214844 493 Z M 1.214844 448 " clip-rule="nonzero"/></clipPath><clipPath id="8e38658946"><path d="M 362 712 L 375 712 L 375 793.109375 L 362 793.109375 Z M 362 712 " clip-rule="nonzero"/></clipPath></defs><g clip-path="url(#0c327343fa)"><path fill="#97afba" d="M 653.398438 186.3125 C 653.191406 186.335938 652.984375 186.363281 652.777344 186.394531 C 652.984375 186.363281 653.191406 186.335938 653.398438 186.3125 Z M 654.976562 186.222656 C 654.777344 186.222656 654.578125 186.230469 654.382812 186.242188 C 654.578125 186.230469 654.777344 186.222656 654.976562 186.222656 Z M 656.585938 186.289062 C 656.414062 186.273438 656.246094 186.269531 656.082031 186.261719 C 656.246094 186.269531 656.414062 186.273438 656.585938 186.289062 Z M 669.8125 381.945312 L 669.9375 394.226562 L 664.871094 393.242188 Z M 808.367188 421.125 L 777.582031 415.144531 L 775.582031 211.058594 C 775.507812 203.320312 773.097656 195.289062 768.941406 189.015625 C 764.8125 182.738281 759.117188 178.515625 753.316406 177.390625 L 721.636719 171.230469 C 719.300781 170.78125 717.019531 170.832031 714.867188 171.351562 L 651.445312 186.640625 C 651.574219 186.605469 651.707031 186.59375 651.835938 186.5625 C 646.457031 187.714844 641.832031 191.734375 639.109375 197.980469 L 545.121094 412.757812 C 541.457031 421.144531 541.6875 432.21875 545.734375 441.972656 C 549.777344 451.699219 557.011719 458.582031 564.789062 460.089844 L 670.785156 480.6875 L 671.128906 516.003906 C 664.820312 513.867188 656.96875 516.703125 654.824219 524.527344 C 654.796875 524.59375 654.765625 524.660156 654.753906 524.730469 L 649.484375 545.160156 L 634.539062 603.109375 L 629.492188 622.683594 L 628.253906 627.472656 L 589.992188 639.457031 L 590.460938 652.660156 L 658.226562 683.429688 L 743.453125 654.6875 L 743.011719 642.230469 L 704.902344 624.738281 L 704.375 622.683594 L 701.285156 610.710938 L 699.152344 602.445312 L 715.847656 607.992188 L 779.265625 592.707031 L 778.285156 487.3125 L 808.945312 479.921875 L 808.367188 421.125 " fill-opacity="1" fill-rule="nonzero"/></g><g clip-path="url(#af80dd779e)"><path fill="#97afba" d="M 201.34375 32.417969 C 201.140625 32.441406 200.933594 32.464844 200.726562 32.5 C 200.933594 32.464844 201.140625 32.441406 201.34375 32.417969 Z M 202.925781 32.328125 C 202.726562 32.328125 202.527344 32.335938 202.328125 32.347656 C 202.527344 32.335938 202.726562 32.328125 202.925781 32.328125 Z M 204.53125 32.394531 C 204.363281 32.378906 204.195312 32.375 204.027344 32.367188 C 204.195312 32.375 204.363281 32.378906 204.53125 32.394531 Z M 217.882812 240.332031 L 212.820312 239.347656 L 217.761719 228.050781 Z M 285.105469 573.980469 L 377.953125 520.03125 C 391.765625 512.035156 410.777344 508.9375 428.691406 510.675781 L 335.824219 564.625 C 322.035156 572.613281 303.023438 575.707031 285.105469 573.980469 Z M 187.054688 44.085938 L 93.070312 258.859375 C 89.40625 267.253906 89.632812 278.324219 93.679688 288.082031 C 97.726562 297.808594 104.964844 304.6875 112.734375 306.195312 L 218.730469 326.796875 L 219.835938 445.003906 L 263.792969 459.15625 L 268.914062 457.925781 L 210.128906 492.078125 C 187.046875 505.496094 175.535156 523.066406 175.554688 540.644531 C 175.554688 540.59375 175.550781 540.539062 175.550781 540.484375 L 175.335938 616.054688 C 175.28125 633.804688 186.996094 651.570312 210.445312 665.121094 C 235.773438 679.730469 269.53125 686.386719 302.519531 685.140625 L 302.375 693.855469 L 300.707031 695.164062 L 286.582031 706.269531 L 269.203125 719.925781 L 260.132812 727.054688 L 237.203125 745.070312 L 221.15625 757.679688 C 220.917969 757.871094 220.730469 758.085938 220.511719 758.285156 C 211.414062 766.421875 218.308594 781.710938 230.621094 780.007812 C 230.734375 779.992188 230.839844 780.003906 230.957031 779.984375 L 251.78125 776.589844 L 271.289062 773.410156 L 291.902344 770.050781 L 310.863281 766.964844 L 330.820312 763.707031 L 335.703125 762.914062 L 362.066406 793.121094 L 373.972656 787.378906 L 374.898438 712.976562 L 344.019531 679.121094 C 356.625 675.792969 368.433594 671.128906 378.789062 665.121094 L 503.648438 592.578125 C 526.664062 579.199219 538.183594 561.699219 538.234375 544.179688 L 538.449219 468.609375 C 538.449219 469.128906 538.402344 469.644531 538.382812 470.160156 C 539.140625 451.898438 527.464844 433.476562 503.3125 419.523438 C 456.65625 392.617188 381.359375 392.617188 334.988281 419.539062 L 327.035156 424.160156 L 326.226562 333.421875 L 356.890625 326.03125 L 356.316406 267.234375 L 325.53125 261.25 L 323.527344 57.164062 C 323.453125 49.425781 321.042969 41.402344 316.890625 35.121094 C 312.757812 28.84375 307.066406 24.625 301.261719 23.496094 L 269.585938 17.339844 C 267.246094 16.882812 264.964844 16.9375 262.8125 17.457031 L 199.394531 32.742188 C 199.519531 32.714844 199.652344 32.699219 199.777344 32.675781 C 194.402344 33.828125 189.78125 37.839844 187.054688 44.085938 " fill-opacity="1" fill-rule="nonzero"/></g><g clip-path="url(#73d202b164)"><path fill="#f9a72b" d="M 154.21875 451.394531 L 116.109375 433.902344 L 115.582031 431.847656 L 113.074219 422.140625 L 105.574219 393.054688 L 103.382812 384.546875 L 95.414062 353.65625 L 90.320312 333.898438 C 90.242188 333.601562 90.121094 333.34375 90.027344 333.0625 C 86.230469 321.4375 69.386719 321.621094 66.042969 333.648438 C 66.011719 333.730469 65.980469 333.804688 65.957031 333.898438 L 60.6875 354.324219 L 55.753906 373.453125 L 53.046875 383.957031 L 45.742188 412.273438 L 40.695312 431.847656 L 39.460938 436.636719 L 1.195312 448.617188 L 1.664062 461.828125 L 69.433594 492.597656 L 154.65625 463.855469 L 154.21875 451.394531 " fill-opacity="1" fill-rule="nonzero"/></g><path fill="#d3d2d2" d="M 150.101562 618.234375 C 150.035156 618.171875 149.988281 618.089844 149.921875 618.03125 C 149.355469 617.492188 148.734375 617.003906 148.070312 616.578125 C 146.746094 615.722656 145.246094 615.097656 143.621094 614.773438 C 143.585938 614.480469 143.570312 614.1875 143.523438 613.894531 C 143.425781 613.324219 143.304688 612.765625 143.160156 612.21875 C 143.109375 612.039062 143.046875 611.863281 142.992188 611.679688 C 142.882812 611.324219 142.777344 610.972656 142.648438 610.625 C 142.566406 610.40625 142.46875 610.195312 142.378906 609.984375 C 142.257812 609.691406 142.136719 609.398438 141.996094 609.109375 C 141.886719 608.882812 141.761719 608.664062 141.640625 608.445312 C 141.503906 608.1875 141.367188 607.9375 141.214844 607.6875 C 141.078125 607.460938 140.929688 607.238281 140.777344 607.019531 C 140.628906 606.792969 140.476562 606.574219 140.320312 606.359375 C 140.148438 606.132812 139.972656 605.914062 139.792969 605.695312 C 139.636719 605.503906 139.476562 605.320312 139.3125 605.132812 C 139.113281 604.914062 138.90625 604.695312 138.695312 604.480469 C 138.539062 604.324219 138.382812 604.175781 138.21875 604.023438 C 137.984375 603.804688 137.742188 603.589844 137.496094 603.386719 C 137.351562 603.261719 137.199219 603.144531 137.046875 603.027344 C 136.773438 602.816406 136.492188 602.605469 136.207031 602.40625 C 136.082031 602.320312 135.953125 602.246094 135.828125 602.160156 C 135.5 601.949219 135.171875 601.742188 134.832031 601.554688 C 134.753906 601.511719 134.671875 601.472656 134.589844 601.425781 C 131.941406 600.003906 128.910156 599.253906 125.75 599.375 C 125.035156 599.402344 124.316406 599.460938 123.59375 599.578125 C 118.53125 600.40625 114.359375 603.359375 111.792969 607.367188 C 108.691406 605.863281 105.113281 605.257812 101.453125 605.855469 C 91.996094 607.40625 85.585938 616.332031 87.136719 625.785156 C 87.398438 627.394531 87.894531 628.90625 88.550781 630.316406 C 85.988281 633.113281 84.644531 636.976562 85.304688 641.011719 C 85.957031 644.980469 88.398438 648.171875 91.640625 650.019531 C 89.15625 652.804688 87.863281 656.609375 88.511719 660.578125 C 89.125 664.316406 91.324219 667.375 94.285156 669.261719 C 94.421875 669.347656 94.558594 669.433594 94.695312 669.515625 C 94.996094 669.695312 95.300781 669.855469 95.617188 670.007812 C 95.867188 670.128906 96.125 670.234375 96.382812 670.34375 C 96.640625 670.445312 96.886719 670.554688 97.152344 670.640625 C 97.695312 670.820312 98.246094 670.976562 98.816406 671.082031 C 98.886719 671.097656 98.953125 671.109375 99.023438 671.125 C 99.644531 671.230469 100.28125 671.285156 100.921875 671.300781 C 101.027344 671.300781 101.132812 671.296875 101.242188 671.296875 C 101.894531 671.292969 102.554688 671.25 103.226562 671.140625 C 105.175781 670.820312 106.949219 670.074219 108.46875 669.011719 C 108.976562 668.660156 109.453125 668.277344 109.898438 667.855469 C 112.472656 669.433594 115.457031 670.355469 118.59375 670.421875 C 119.636719 670.445312 120.699219 670.375 121.769531 670.199219 C 123.984375 669.832031 126.035156 669.066406 127.851562 667.980469 C 128.460938 667.617188 129.039062 667.222656 129.59375 666.792969 C 131.800781 665.078125 133.566406 662.851562 134.730469 660.324219 C 135.664062 658.300781 136.214844 656.082031 136.304688 653.78125 C 136.351562 652.628906 136.28125 651.453125 136.085938 650.273438 C 136.070312 650.171875 136.042969 650.078125 136.023438 649.976562 C 138.820312 647.367188 140.707031 643.863281 141.320312 640.015625 C 147.613281 639.914062 153.039062 635.246094 153.824219 628.820312 C 153.925781 627.988281 153.945312 627.160156 153.886719 626.351562 C 153.664062 623.210938 152.261719 620.359375 150.101562 618.234375 " fill-opacity="1" fill-rule="nonzero"/><path fill="#f9a72b" d="M 743.011719 642.230469 L 704.902344 624.738281 L 704.375 622.683594 L 700.628906 608.148438 L 699.152344 602.445312 L 694.367188 583.894531 L 691.527344 572.863281 L 684.210938 544.492188 L 679.113281 524.730469 C 679.039062 524.4375 678.914062 524.179688 678.824219 523.898438 C 677.488281 519.804688 674.554688 517.160156 671.132812 516.003906 C 664.855469 513.875 657.054688 516.679688 654.863281 524.414062 C 654.828125 524.527344 654.78125 524.617188 654.753906 524.730469 L 649.484375 545.160156 L 644.546875 564.289062 L 643.113281 569.851562 L 634.539062 603.109375 L 629.492188 622.683594 L 628.253906 627.472656 L 589.992188 639.457031 L 590.460938 652.660156 L 658.226562 683.429688 L 743.453125 654.6875 L 743.011719 642.230469 " fill-opacity="1" fill-rule="nonzero"/><g clip-path="url(#7a3cab20c3)"><path fill="#f9a72b" d="M 314.300781 646.527344 L 303.070312 651.9375 L 302.519531 685.140625 L 302.375 693.855469 L 300.707031 695.164062 L 289.335938 704.101562 L 269.203125 719.925781 L 259.617188 727.457031 L 237.207031 745.070312 L 221.15625 757.679688 C 220.917969 757.871094 220.734375 758.085938 220.511719 758.285156 C 211.414062 766.417969 218.308594 781.710938 230.621094 780.007812 C 230.734375 779.992188 230.839844 780.003906 230.957031 779.984375 L 251.78125 776.589844 L 271.289062 773.410156 L 291.902344 770.050781 L 310.863281 766.964844 L 330.820312 763.707031 L 335.703125 762.914062 L 362.066406 793.121094 L 373.972656 787.378906 L 374.898438 712.976562 L 344.019531 679.121094 L 314.300781 646.527344 " fill-opacity="1" fill-rule="nonzero"/></g><path fill="#ed952a" d="M 743.011719 642.230469 L 704.902344 624.738281 L 709.382812 642.105469 C 709.382812 642.105469 660.046875 661.394531 624.480469 642.105469 L 628.253906 627.472656 L 589.992188 639.457031 L 590.460938 652.660156 L 658.226562 683.429688 L 743.453125 654.6875 L 743.011719 642.230469 " fill-opacity="1" fill-rule="nonzero"/><g clip-path="url(#dbaa7525ef)"><path fill="#ed952a" d="M 116.109375 433.902344 L 120.589844 451.273438 C 120.589844 451.273438 71.25 470.554688 35.6875 451.273438 L 39.460938 436.636719 L 1.195312 448.617188 L 1.664062 461.828125 L 69.433594 492.597656 L 154.65625 463.855469 L 154.21875 451.394531 L 116.109375 433.902344 " fill-opacity="1" fill-rule="nonzero"/></g><g clip-path="url(#9c8170aa4f)"><path fill="#ed952a" d="M 314.300781 646.527344 L 303.070312 651.9375 L 302.519531 685.140625 L 302.375 693.855469 L 316.480469 682.769531 C 316.480469 682.769531 353.984375 720.179688 350.621094 760.484375 L 335.703125 762.914062 L 362.066406 793.121094 L 373.972656 787.378906 L 374.898438 712.976562 L 344.019531 679.121094 L 314.300781 646.527344 " fill-opacity="1" fill-rule="nonzero"/></g><path fill="#869aa4" d="M 664.871094 393.242188 L 669.8125 381.945312 L 668.570312 255.128906 L 601.453125 408.53125 L 670.210938 421.890625 L 669.9375 394.226562 L 664.871094 393.242188 " fill-opacity="1" fill-rule="nonzero"/><g clip-path="url(#0e53b97b0c)"><path fill="#869aa4" d="M 808.945312 479.921875 L 808.367188 421.125 L 777.582031 415.144531 L 775.582031 211.058594 C 775.507812 203.320312 773.097656 195.289062 768.941406 189.015625 C 764.8125 182.738281 759.117188 178.515625 753.316406 177.390625 L 721.636719 171.230469 C 719.300781 170.78125 717.019531 170.832031 714.867188 171.351562 L 651.445312 186.640625 C 651.574219 186.605469 651.707031 186.59375 651.835938 186.5625 C 652.144531 186.5 652.457031 186.441406 652.777344 186.394531 C 652.984375 186.363281 653.191406 186.335938 653.398438 186.3125 C 653.722656 186.277344 654.046875 186.253906 654.382812 186.242188 C 654.578125 186.230469 654.777344 186.222656 654.976562 186.222656 C 655.34375 186.21875 655.710938 186.238281 656.082031 186.261719 C 656.246094 186.269531 656.414062 186.273438 656.585938 186.289062 C 657.125 186.339844 657.671875 186.410156 658.21875 186.515625 L 689.894531 192.671875 C 695.695312 193.800781 701.390625 198.023438 705.519531 204.300781 C 709.675781 210.582031 712.085938 218.609375 712.160156 226.347656 L 714.160156 430.429688 L 744.949219 436.414062 L 745.523438 495.214844 L 714.742188 489.234375 L 715.847656 607.992188 L 779.265625 592.707031 L 778.285156 487.3125 L 808.945312 479.921875 " fill-opacity="1" fill-rule="nonzero"/></g><path fill="#869aa4" d="M 217.882812 240.332031 L 212.820312 239.347656 L 217.761719 228.050781 L 216.515625 101.238281 L 149.398438 254.632812 L 218.15625 267.992188 L 217.882812 240.332031 " fill-opacity="1" fill-rule="nonzero"/><path fill="#869aa4" d="M 200.726562 32.5 C 200.933594 32.464844 201.140625 32.441406 201.34375 32.417969 C 201.671875 32.382812 201.996094 32.363281 202.328125 32.347656 C 202.527344 32.335938 202.726562 32.328125 202.925781 32.328125 C 203.292969 32.324219 203.660156 32.339844 204.03125 32.367188 C 204.199219 32.375 204.363281 32.378906 204.53125 32.394531 C 205.074219 32.449219 205.617188 32.519531 206.164062 32.621094 L 237.84375 38.78125 C 243.648438 39.910156 249.339844 44.128906 253.472656 50.40625 C 257.625 56.6875 260.03125 64.714844 260.109375 72.453125 L 262.109375 276.535156 L 292.894531 282.523438 L 293.472656 341.320312 L 262.6875 335.332031 L 263.792969 459.15625 L 268.914062 457.925781 L 327.039062 424.160156 L 326.226562 333.421875 L 356.890625 326.03125 L 356.316406 267.234375 L 325.53125 261.25 L 323.53125 57.164062 C 323.453125 49.425781 321.042969 41.402344 316.890625 35.121094 C 312.757812 28.84375 307.066406 24.625 301.261719 23.496094 L 269.585938 17.339844 C 267.25 16.882812 264.964844 16.9375 262.8125 17.457031 L 199.394531 32.742188 C 199.519531 32.714844 199.652344 32.699219 199.78125 32.675781 C 200.09375 32.605469 200.40625 32.546875 200.726562 32.5 " fill-opacity="1" fill-rule="nonzero"/><path fill="#869aa4" d="M 538.3125 471.730469 C 538.265625 472.304688 538.179688 472.878906 538.109375 473.457031 C 538.046875 473.976562 538 474.5 537.914062 475.019531 C 537.816406 475.59375 537.683594 476.164062 537.566406 476.742188 C 537.460938 477.257812 537.371094 477.777344 537.242188 478.296875 C 537.097656 478.867188 536.917969 479.433594 536.75 480 C 536.605469 480.519531 536.46875 481.035156 536.296875 481.550781 C 536.113281 482.117188 535.882812 482.679688 535.671875 483.242188 C 535.476562 483.753906 535.300781 484.273438 535.085938 484.789062 C 534.851562 485.347656 534.574219 485.90625 534.316406 486.460938 C 534.078125 486.972656 533.855469 487.480469 533.601562 487.988281 C 533.320312 488.546875 532.992188 489.105469 532.683594 489.65625 C 532.40625 490.15625 532.144531 490.660156 531.847656 491.160156 C 531.511719 491.710938 531.136719 492.257812 530.777344 492.8125 C 530.457031 493.300781 530.160156 493.796875 529.820312 494.28125 C 529.441406 494.828125 529.011719 495.371094 528.605469 495.914062 C 528.246094 496.394531 527.90625 496.878906 527.523438 497.355469 C 527.089844 497.902344 526.613281 498.4375 526.15625 498.972656 C 525.757812 499.4375 525.375 499.910156 524.957031 500.375 C 524.476562 500.910156 523.953125 501.433594 523.441406 501.957031 C 523 502.417969 522.582031 502.882812 522.121094 503.335938 C 521.59375 503.851562 521.035156 504.351562 520.492188 504.855469 C 519.996094 505.3125 519.519531 505.777344 519.007812 506.230469 C 518.414062 506.75 517.785156 507.257812 517.164062 507.765625 C 516.648438 508.195312 516.160156 508.628906 515.625 509.046875 C 514.945312 509.589844 514.214844 510.117188 513.492188 510.648438 C 512.984375 511.03125 512.5 511.414062 511.976562 511.789062 C 511.144531 512.382812 510.261719 512.960938 509.390625 513.542969 C 508.9375 513.84375 508.515625 514.148438 508.054688 514.445312 C 506.703125 515.3125 505.308594 516.171875 503.859375 517.011719 L 379.003906 589.546875 C 332.65625 616.453125 257.335938 616.46875 210.660156 589.546875 C 209.199219 588.707031 207.785156 587.84375 206.414062 586.96875 C 205.953125 586.675781 205.523438 586.371094 205.074219 586.070312 C 204.1875 585.480469 203.289062 584.898438 202.441406 584.296875 C 201.953125 583.953125 201.503906 583.59375 201.027344 583.242188 C 200.257812 582.675781 199.476562 582.113281 198.738281 581.535156 C 198.246094 581.148438 197.796875 580.753906 197.320312 580.359375 C 196.648438 579.808594 195.957031 579.257812 195.316406 578.699219 C 194.828125 578.273438 194.386719 577.835938 193.917969 577.410156 C 193.328125 576.867188 192.722656 576.332031 192.160156 575.785156 C 191.699219 575.332031 191.277344 574.867188 190.832031 574.410156 C 190.316406 573.878906 189.777344 573.351562 189.289062 572.808594 C 188.851562 572.324219 188.453125 571.839844 188.039062 571.355469 C 187.585938 570.824219 187.109375 570.300781 186.679688 569.765625 C 186.285156 569.273438 185.929688 568.773438 185.554688 568.277344 C 185.152344 567.742188 184.730469 567.210938 184.351562 566.667969 C 183.992188 566.164062 183.679688 565.652344 183.34375 565.140625 C 182.992188 564.601562 182.621094 564.066406 182.292969 563.523438 C 181.980469 563.007812 181.707031 562.484375 181.417969 561.96875 C 181.113281 561.425781 180.789062 560.882812 180.507812 560.335938 C 180.238281 559.8125 180.007812 559.277344 179.761719 558.75 C 179.503906 558.203125 179.230469 557.660156 179 557.113281 C 178.773438 556.578125 178.589844 556.042969 178.382812 555.507812 C 178.175781 554.957031 177.949219 554.410156 177.761719 553.851562 C 177.582031 553.320312 177.445312 552.789062 177.285156 552.25 C 177.121094 551.691406 176.941406 551.136719 176.800781 550.574219 C 176.664062 550.035156 176.570312 549.5 176.457031 548.960938 C 176.339844 548.402344 176.207031 547.839844 176.113281 547.277344 C 176.019531 546.746094 175.972656 546.207031 175.902344 545.675781 C 175.832031 545.101562 175.742188 544.53125 175.695312 543.964844 C 175.652344 543.433594 175.644531 542.90625 175.621094 542.375 C 175.597656 541.800781 175.554688 541.222656 175.554688 540.648438 C 175.554688 540.59375 175.550781 540.539062 175.550781 540.484375 L 175.335938 616.054688 C 175.28125 633.804688 186.996094 651.570312 210.445312 665.121094 C 235.773438 679.730469 269.53125 686.386719 302.519531 685.140625 L 303.070312 651.9375 L 314.300781 646.527344 L 344.019531 679.121094 C 356.625 675.792969 368.433594 671.128906 378.789062 665.121094 L 503.648438 592.578125 C 526.664062 579.199219 538.183594 561.699219 538.234375 544.179688 L 538.449219 468.609375 C 538.449219 469.128906 538.402344 469.644531 538.382812 470.160156 C 538.359375 470.683594 538.355469 471.207031 538.3125 471.730469 " fill-opacity="1" fill-rule="nonzero"/><path fill="#869aa4" d="M 249.355469 519.554688 C 248.921875 519.863281 248.5625 520.191406 248.152344 520.503906 C 247.390625 521.089844 246.613281 521.667969 245.925781 522.269531 C 245.507812 522.640625 245.164062 523.027344 244.773438 523.402344 C 244.179688 523.980469 243.554688 524.542969 243.023438 525.128906 C 242.667969 525.527344 242.390625 525.933594 242.0625 526.339844 C 241.582031 526.925781 241.070312 527.507812 240.652344 528.113281 C 240.363281 528.527344 240.148438 528.957031 239.890625 529.375 C 239.515625 529.980469 239.117188 530.574219 238.808594 531.1875 C 238.585938 531.625 238.441406 532.070312 238.25 532.511719 C 237.988281 533.117188 237.695312 533.71875 237.492188 534.328125 C 237.339844 534.785156 237.265625 535.242188 237.148438 535.699219 C 236.992188 536.308594 236.804688 536.914062 236.707031 537.523438 C 236.628906 537.992188 236.628906 538.464844 236.585938 538.9375 C 235.757812 548.0625 241.261719 557.347656 253.175781 564.378906 C 253.3125 564.460938 253.425781 564.546875 253.558594 564.625 C 262.492188 569.765625 273.574219 572.859375 285.105469 573.980469 L 377.953125 520.03125 C 391.765625 512.035156 410.777344 508.9375 428.691406 510.675781 L 460.679688 492.085938 C 471.953125 485.515625 477.5625 476.9375 477.554688 468.347656 C 477.546875 467.785156 477.46875 467.222656 477.414062 466.65625 C 477.371094 466.144531 477.367188 465.625 477.28125 465.117188 C 477.1875 464.539062 477 463.972656 476.859375 463.402344 C 476.730469 462.902344 476.644531 462.398438 476.472656 461.898438 C 476.277344 461.320312 475.996094 460.75 475.746094 460.175781 C 475.539062 459.695312 475.378906 459.210938 475.132812 458.734375 C 474.835938 458.148438 474.445312 457.578125 474.085938 456.996094 C 473.808594 456.542969 473.574219 456.085938 473.261719 455.640625 C 472.839844 455.050781 472.335938 454.472656 471.859375 453.894531 C 471.519531 453.476562 471.222656 453.050781 470.851562 452.636719 C 470.308594 452.042969 469.667969 451.464844 469.0625 450.886719 C 468.671875 450.515625 468.324219 450.125 467.90625 449.757812 C 467.203125 449.148438 466.414062 448.566406 465.640625 447.972656 C 465.222656 447.660156 464.863281 447.328125 464.425781 447.019531 C 463.175781 446.132812 461.839844 445.277344 460.414062 444.449219 C 437.597656 431.328125 400.851562 431.328125 378.167969 444.457031 L 253.3125 516.996094 C 251.90625 517.820312 250.585938 518.671875 249.355469 519.554688 " fill-opacity="1" fill-rule="nonzero"/><path fill="#7d9099" d="M 664.871094 393.242188 L 601.453125 408.53125 L 670.210938 421.890625 L 669.9375 394.226562 L 664.871094 393.242188 " fill-opacity="1" fill-rule="nonzero"/><g clip-path="url(#f46eebe8be)"><path fill="#8ba1ab" d="M 745.523438 495.214844 L 778.285156 487.3125 L 808.945312 479.921875 L 808.367188 421.125 L 744.949219 436.414062 L 745.523438 495.214844 " fill-opacity="1" fill-rule="nonzero"/></g><g clip-path="url(#04c5b5d3f3)"><path fill="#94abb6" d="M 744.949219 436.414062 L 808.367188 421.125 L 777.582031 415.144531 L 714.160156 430.429688 L 744.949219 436.414062 " fill-opacity="1" fill-rule="nonzero"/></g><path fill="#94abb6" d="M 653.398438 186.3125 C 653.722656 186.277344 654.046875 186.253906 654.382812 186.242188 C 654.578125 186.230469 654.777344 186.222656 654.976562 186.222656 C 655.34375 186.21875 655.710938 186.238281 656.082031 186.261719 C 656.246094 186.269531 656.414062 186.273438 656.585938 186.289062 C 657.125 186.339844 657.671875 186.410156 658.21875 186.515625 L 689.894531 192.671875 L 753.316406 177.390625 L 721.636719 171.230469 C 719.300781 170.78125 717.019531 170.832031 714.867188 171.351562 L 651.445312 186.640625 C 651.574219 186.605469 651.707031 186.59375 651.835938 186.5625 C 652.144531 186.5 652.457031 186.441406 652.777344 186.394531 C 652.984375 186.363281 653.191406 186.335938 653.398438 186.3125 " fill-opacity="1" fill-rule="nonzero"/><path fill="#8ba1ab" d="M 714.160156 430.429688 L 777.582031 415.144531 L 775.582031 211.058594 L 712.160156 226.347656 L 714.160156 430.429688 " fill-opacity="1" fill-rule="nonzero"/><path fill="#90a7b1" d="M 705.519531 204.300781 C 709.675781 210.582031 712.085938 218.609375 712.160156 226.347656 L 775.582031 211.058594 C 775.507812 203.320312 773.097656 195.289062 768.941406 189.015625 C 764.8125 182.738281 759.117188 178.515625 753.316406 177.390625 L 689.894531 192.671875 C 695.695312 193.800781 701.390625 198.023438 705.519531 204.300781 " fill-opacity="1" fill-rule="nonzero"/><path fill="#7d9099" d="M 212.820312 239.347656 L 149.398438 254.632812 L 218.15625 267.992188 L 217.882812 240.332031 L 212.820312 239.347656 " fill-opacity="1" fill-rule="nonzero"/><path fill="#8ba1ab" d="M 293.472656 341.320312 L 326.226562 333.421875 L 356.890625 326.03125 L 356.316406 267.234375 L 292.894531 282.523438 L 293.472656 341.320312 " fill-opacity="1" fill-rule="nonzero"/><path fill="#94abb6" d="M 292.894531 282.523438 L 356.316406 267.234375 L 325.53125 261.25 L 262.109375 276.535156 L 292.894531 282.523438 " fill-opacity="1" fill-rule="nonzero"/><path fill="#94abb6" d="M 201.34375 32.417969 C 201.671875 32.382812 201.996094 32.363281 202.328125 32.347656 C 202.527344 32.335938 202.726562 32.328125 202.925781 32.328125 C 203.292969 32.324219 203.660156 32.339844 204.03125 32.367188 C 204.199219 32.375 204.363281 32.378906 204.53125 32.394531 C 205.074219 32.449219 205.617188 32.519531 206.164062 32.621094 L 237.84375 38.78125 L 301.261719 23.496094 L 269.585938 17.339844 C 267.25 16.882812 264.964844 16.9375 262.8125 17.457031 L 199.394531 32.742188 C 199.519531 32.714844 199.652344 32.699219 199.78125 32.675781 C 200.09375 32.605469 200.40625 32.546875 200.726562 32.5 C 200.933594 32.464844 201.140625 32.441406 201.34375 32.417969 " fill-opacity="1" fill-rule="nonzero"/><path fill="#8ba1ab" d="M 262.109375 276.535156 L 325.53125 261.25 L 323.53125 57.164062 L 260.109375 72.453125 L 262.109375 276.535156 " fill-opacity="1" fill-rule="nonzero"/><path fill="#90a7b1" d="M 253.472656 50.40625 C 257.625 56.6875 260.03125 64.714844 260.109375 72.453125 L 323.53125 57.164062 C 323.453125 49.425781 321.042969 41.402344 316.890625 35.121094 C 312.757812 28.84375 307.066406 24.625 301.261719 23.496094 L 237.84375 38.78125 C 243.648438 39.910156 249.339844 44.128906 253.472656 50.40625 " fill-opacity="1" fill-rule="nonzero"/><path fill="#7d9099" d="M 428.691406 510.675781 L 460.679688 492.085938 C 471.953125 485.515625 477.5625 476.9375 477.554688 468.347656 C 477.546875 467.785156 477.46875 467.222656 477.414062 466.65625 C 477.371094 466.144531 477.367188 465.625 477.28125 465.117188 C 477.1875 464.539062 477 463.972656 476.859375 463.402344 C 476.730469 462.902344 476.644531 462.398438 476.472656 461.898438 C 476.277344 461.320312 475.996094 460.75 475.746094 460.175781 C 475.539062 459.695312 475.378906 459.210938 475.132812 458.734375 C 474.835938 458.148438 474.445312 457.578125 474.085938 456.996094 C 473.808594 456.542969 473.574219 456.085938 473.261719 455.640625 C 472.839844 455.050781 472.335938 454.472656 471.859375 453.894531 C 471.519531 453.476562 471.222656 453.050781 470.851562 452.636719 C 470.308594 452.042969 469.667969 451.464844 469.0625 450.886719 C 468.671875 450.515625 468.324219 450.125 467.90625 449.757812 C 467.203125 449.148438 466.414062 448.566406 465.640625 447.972656 C 465.222656 447.660156 464.863281 447.328125 464.425781 447.019531 C 463.175781 446.132812 461.839844 445.277344 460.414062 444.449219 C 437.597656 431.328125 400.851562 431.328125 378.167969 444.457031 L 377.953125 520.03125 C 391.765625 512.035156 410.777344 508.9375 428.691406 510.675781 " fill-opacity="1" fill-rule="nonzero"/><path fill="#7d9099" d="M 240.652344 528.113281 C 240.363281 528.527344 240.148438 528.957031 239.890625 529.375 C 239.515625 529.980469 239.117188 530.574219 238.808594 531.1875 C 238.585938 531.625 238.441406 532.070312 238.25 532.511719 C 237.988281 533.117188 237.695312 533.71875 237.492188 534.328125 C 237.339844 534.785156 237.265625 535.242188 237.148438 535.699219 C 236.992188 536.308594 236.804688 536.914062 236.707031 537.523438 C 236.628906 537.992188 236.628906 538.464844 236.585938 538.9375 C 235.757812 548.0625 241.261719 557.347656 253.175781 564.378906 L 253.3125 516.996094 C 251.90625 517.820312 250.585938 518.671875 249.355469 519.554688 C 248.921875 519.863281 248.5625 520.191406 248.152344 520.503906 C 247.390625 521.089844 246.613281 521.667969 245.925781 522.269531 C 245.507812 522.640625 245.164062 523.027344 244.773438 523.402344 C 244.179688 523.980469 243.554688 524.542969 243.023438 525.128906 C 242.667969 525.527344 242.390625 525.933594 242.0625 526.339844 C 241.582031 526.925781 241.070312 527.507812 240.652344 528.113281 " fill-opacity="1" fill-rule="nonzero"/><path fill="#8ba1ab" d="M 379.003906 589.546875 L 378.789062 665.121094 L 503.648438 592.578125 L 503.859375 517.011719 L 379.003906 589.546875 " fill-opacity="1" fill-rule="nonzero"/><path fill="#90a7b1" d="M 210.660156 589.546875 C 209.199219 588.707031 207.785156 587.84375 206.414062 586.96875 C 205.953125 586.675781 205.523438 586.371094 205.074219 586.070312 C 204.1875 585.480469 203.289062 584.898438 202.441406 584.296875 C 201.953125 583.953125 201.503906 583.59375 201.027344 583.242188 C 200.257812 582.675781 199.476562 582.113281 198.738281 581.535156 C 198.246094 581.148438 197.796875 580.753906 197.320312 580.359375 C 196.648438 579.808594 195.957031 579.257812 195.316406 578.699219 C 194.828125 578.273438 194.386719 577.835938 193.917969 577.410156 C 193.328125 576.867188 192.722656 576.332031 192.160156 575.785156 C 191.699219 575.332031 191.277344 574.867188 190.832031 574.410156 C 190.316406 573.878906 189.777344 573.351562 189.289062 572.808594 C 188.851562 572.324219 188.453125 571.839844 188.039062 571.355469 C 187.585938 570.824219 187.109375 570.300781 186.679688 569.765625 C 186.285156 569.273438 185.929688 568.773438 185.554688 568.277344 C 185.152344 567.742188 184.730469 567.210938 184.351562 566.667969 C 183.992188 566.164062 183.679688 565.652344 183.34375 565.140625 C 182.992188 564.601562 182.621094 564.066406 182.292969 563.523438 C 181.980469 563.007812 181.707031 562.484375 181.417969 561.96875 C 181.113281 561.425781 180.789062 560.882812 180.507812 560.335938 C 180.238281 559.8125 180.007812 559.277344 179.761719 558.75 C 179.503906 558.203125 179.230469 557.660156 179 557.113281 C 178.773438 556.578125 178.589844 556.042969 178.382812 555.507812 C 178.175781 554.957031 177.949219 554.410156 177.761719 553.851562 C 177.582031 553.320312 177.445312 552.789062 177.285156 552.25 C 177.121094 551.691406 176.941406 551.136719 176.800781 550.574219 C 176.664062 550.035156 176.570312 549.5 176.457031 548.960938 C 176.339844 548.402344 176.207031 547.839844 176.113281 547.277344 C 176.019531 546.746094 175.972656 546.207031 175.902344 545.675781 C 175.832031 545.101562 175.742188 544.53125 175.695312 543.964844 C 175.652344 543.433594 175.644531 542.90625 175.621094 542.375 C 175.597656 541.800781 175.554688 541.222656 175.554688 540.648438 C 175.554688 540.59375 175.550781 540.539062 175.550781 540.484375 L 175.335938 616.054688 C 175.28125 633.804688 186.996094 651.570312 210.445312 665.121094 C 235.773438 679.730469 269.53125 686.386719 302.519531 685.140625 L 303.070312 651.9375 L 314.300781 646.527344 L 344.019531 679.121094 C 356.625 675.792969 368.433594 671.128906 378.789062 665.121094 L 379.003906 589.546875 C 332.65625 616.453125 257.335938 616.46875 210.660156 589.546875 " fill-opacity="1" fill-rule="nonzero"/><path fill="#bdbcbc" d="M 136.023438 649.976562 C 138.820312 647.367188 140.707031 643.863281 141.320312 640.015625 C 147.613281 639.914062 153.039062 635.246094 153.824219 628.820312 C 153.925781 627.988281 153.945312 627.160156 153.886719 626.351562 C 153.664062 623.210938 152.261719 620.359375 150.101562 618.234375 C 150.035156 618.171875 149.988281 618.089844 149.921875 618.03125 C 149.355469 617.492188 148.734375 617.003906 148.070312 616.578125 C 146.746094 615.722656 145.246094 615.097656 143.621094 614.773438 C 143.585938 614.480469 143.570312 614.1875 143.523438 613.894531 C 143.425781 613.324219 143.304688 612.765625 143.160156 612.21875 C 143.109375 612.039062 143.046875 611.863281 142.992188 611.679688 C 142.882812 611.324219 142.777344 610.972656 142.648438 610.625 C 142.566406 610.40625 142.46875 610.195312 142.378906 609.984375 C 142.257812 609.691406 142.136719 609.398438 141.996094 609.109375 C 141.886719 608.882812 141.761719 608.664062 141.640625 608.445312 C 141.503906 608.1875 141.367188 607.9375 141.214844 607.6875 C 141.078125 607.460938 140.929688 607.238281 140.777344 607.019531 C 140.628906 606.792969 140.476562 606.574219 140.320312 606.359375 C 140.148438 606.132812 139.972656 605.914062 139.792969 605.695312 C 139.636719 605.503906 139.476562 605.320312 139.3125 605.132812 C 139.113281 604.914062 138.90625 604.695312 138.695312 604.480469 C 138.539062 604.324219 138.382812 604.175781 138.21875 604.023438 C 137.984375 603.804688 137.742188 603.589844 137.496094 603.386719 C 137.351562 603.261719 137.199219 603.144531 137.046875 603.027344 C 136.773438 602.816406 136.492188 602.605469 136.207031 602.40625 C 136.082031 602.320312 135.953125 602.246094 135.828125 602.160156 C 135.5 601.949219 135.171875 601.742188 134.832031 601.554688 C 134.753906 601.511719 134.671875 601.472656 134.589844 601.425781 C 131.941406 600.007812 128.90625 599.253906 125.75 599.375 C 131.589844 601.101562 136.238281 606.015625 137.289062 612.421875 C 137.332031 612.699219 137.351562 612.976562 137.378906 613.25 C 143.519531 614.484375 147.789062 620.199219 147.015625 626.511719 C 146.273438 632.582031 141.148438 636.988281 135.207031 637.082031 C 134.628906 640.71875 132.847656 644.019531 130.210938 646.484375 C 130.226562 646.582031 130.253906 646.671875 130.269531 646.765625 C 131.730469 655.6875 125.679688 664.113281 116.753906 665.574219 C 112.714844 666.238281 108.78125 665.347656 105.546875 663.363281 C 103.859375 664.945312 101.699219 666.066406 99.242188 666.46875 C 95.605469 667.0625 92.117188 665.929688 89.503906 663.714844 C 91.226562 667.5625 94.726562 670.3125 98.816406 671.082031 C 98.886719 671.097656 98.953125 671.109375 99.023438 671.125 C 99.644531 671.230469 100.28125 671.285156 100.921875 671.300781 C 101.027344 671.300781 101.132812 671.296875 101.242188 671.296875 C 101.894531 671.292969 102.554688 671.25 103.226562 671.140625 C 105.175781 670.820312 106.949219 670.074219 108.46875 669.011719 C 108.976562 668.660156 109.453125 668.277344 109.898438 667.855469 C 112.472656 669.433594 115.457031 670.355469 118.59375 670.421875 C 119.636719 670.445312 120.699219 670.375 121.769531 670.199219 C 124.722656 669.710938 127.382812 668.507812 129.59375 666.792969 C 131.800781 665.078125 133.566406 662.851562 134.730469 660.324219 C 135.664062 658.300781 136.214844 656.082031 136.304688 653.78125 C 136.351562 652.628906 136.28125 651.453125 136.085938 650.273438 C 136.070312 650.171875 136.042969 650.078125 136.023438 649.976562 " fill-opacity="1" fill-rule="nonzero"/><path fill="#d3d2d2" d="M 171.941406 648.605469 C 175.011719 647.808594 177.890625 646.386719 180.46875 644.628906 C 177.371094 645.207031 174.445312 645.921875 171.460938 646.238281 C 168.5 646.644531 165.535156 646.753906 162.585938 646.660156 C 159.628906 646.628906 156.6875 646.226562 153.746094 645.691406 C 150.804688 645.128906 147.882812 644.375 144.914062 643.386719 C 147.257812 645.496094 150.128906 646.972656 153.117188 648.011719 C 156.113281 649.074219 159.289062 649.644531 162.484375 649.75 C 165.671875 649.800781 168.890625 649.53125 171.941406 648.605469 " fill-opacity="1" fill-rule="nonzero"/><path fill="#d3d2d2" d="M 149.085938 653.367188 C 147.15625 652.726562 145.257812 652.222656 142.851562 652.214844 C 144.058594 654.355469 146.042969 655.507812 148.0625 656.277344 C 150.128906 656.953125 152.367188 657.253906 154.65625 656.429688 C 153.746094 655.597656 152.820312 655.066406 151.894531 654.574219 C 150.96875 654.089844 150.035156 653.71875 149.085938 653.367188 " fill-opacity="1" fill-rule="nonzero"/><path fill="#d3d2d2" d="M 161.277344 663.953125 C 157.0625 664.003906 152.855469 663.488281 148.691406 662.65625 C 144.539062 661.785156 140.394531 660.636719 136.347656 658.972656 C 139.804688 661.679688 143.847656 663.667969 148.085938 664.980469 C 152.320312 666.34375 156.785156 667.027344 161.257812 667.042969 C 165.71875 667.007812 170.214844 666.492188 174.441406 665.078125 C 176.597656 664.519531 178.609375 663.539062 180.621094 662.652344 C 182.59375 661.65625 184.460938 660.46875 186.285156 659.28125 C 182.101562 660.636719 178.039062 661.980469 173.851562 662.738281 C 169.703125 663.625 165.480469 663.96875 161.277344 663.953125 " fill-opacity="1" fill-rule="nonzero"/><path fill="#d78726" d="M 658.226562 683.429688 L 743.453125 654.6875 L 743.011719 642.230469 L 657.636719 669.699219 L 658.226562 683.429688 " fill-opacity="1" fill-rule="nonzero"/><path fill="#e28e28" d="M 589.992188 639.457031 L 590.460938 652.660156 L 658.226562 683.429688 L 657.636719 669.699219 L 589.992188 639.457031 " fill-opacity="1" fill-rule="nonzero"/><path fill="#e9e9e9" d="M 694.367188 583.894531 L 691.527344 572.863281 L 689.140625 563.59375 C 677.511719 565.445312 660.804688 566.9375 644.546875 564.289062 L 643.113281 569.851562 L 639.335938 584.515625 C 659.738281 589.058594 681.898438 586.253906 694.367188 583.894531 " fill-opacity="1" fill-rule="nonzero"/><path fill="#e9e9e9" d="M 684.210938 544.492188 L 679.113281 524.730469 C 679.039062 524.4375 678.914062 524.179688 678.824219 523.898438 C 671.546875 524.621094 663.308594 524.96875 654.863281 524.414062 C 654.828125 524.527344 654.78125 524.617188 654.753906 524.730469 L 649.484375 545.160156 C 661.933594 546.566406 674.34375 545.789062 684.210938 544.492188 " fill-opacity="1" fill-rule="nonzero"/><path fill="#e9e9e9" d="M 634.539062 603.109375 L 629.492188 622.683594 C 661.878906 634.589844 704.371094 622.6875 704.375 622.683594 L 700.628906 608.148438 L 699.230469 602.726562 C 687.757812 605.257812 659.136719 610.175781 634.539062 603.109375 " fill-opacity="1" fill-rule="nonzero"/><path fill="#d78726" d="M 154.21875 451.394531 L 68.84375 478.863281 L 69.433594 492.597656 L 154.65625 463.855469 L 154.21875 451.394531 " fill-opacity="1" fill-rule="nonzero"/><g clip-path="url(#61ff4dbc09)"><path fill="#e28e28" d="M 1.195312 448.617188 L 1.664062 461.828125 L 69.433594 492.597656 L 68.84375 478.863281 L 1.195312 448.617188 " fill-opacity="1" fill-rule="nonzero"/></g><path fill="#e9e9e9" d="M 105.574219 393.054688 C 105.578125 393.054688 105.578125 393.054688 105.578125 393.054688 L 102.730469 382.023438 L 100.339844 372.757812 C 88.714844 374.609375 72.007812 376.105469 55.753906 373.453125 L 53.046875 383.957031 L 50.539062 393.671875 C 70.941406 398.222656 93.105469 395.421875 105.574219 393.054688 " fill-opacity="1" fill-rule="nonzero"/><path fill="#e9e9e9" d="M 95.414062 353.65625 L 90.320312 333.898438 C 90.242188 333.601562 90.121094 333.34375 90.027344 333.0625 C 82.753906 333.789062 74.511719 334.136719 66.066406 333.578125 C 66.035156 333.6875 65.988281 333.78125 65.957031 333.898438 L 60.6875 354.324219 C 73.140625 355.734375 85.550781 354.949219 95.414062 353.65625 " fill-opacity="1" fill-rule="nonzero"/><path fill="#e9e9e9" d="M 115.582031 431.847656 L 111.417969 415.710938 L 110.433594 411.890625 C 98.964844 414.421875 70.34375 419.34375 45.742188 412.273438 L 40.695312 431.847656 C 73.082031 443.753906 115.574219 431.851562 115.582031 431.847656 " fill-opacity="1" fill-rule="nonzero"/><path fill="#d78726" d="M 303.070312 651.9375 L 362.558594 719.039062 L 374.898438 712.976562 L 344.019531 679.121094 L 314.300781 646.527344 L 303.070312 651.9375 " fill-opacity="1" fill-rule="nonzero"/><g clip-path="url(#8e38658946)"><path fill="#e28e28" d="M 362.066406 793.121094 L 373.972656 787.378906 L 374.898438 712.976562 L 362.558594 719.039062 L 362.066406 793.121094 " fill-opacity="1" fill-rule="nonzero"/></g><path fill="#e9e9e9" d="M 269.203125 719.925781 L 259.617188 727.457031 L 252.71875 732.878906 C 259.089844 742.777344 267.179688 757.46875 271.289062 773.410156 L 291.902344 770.050781 C 287.863281 749.546875 276.382812 730.386719 269.203125 719.925781 " fill-opacity="1" fill-rule="nonzero"/><path fill="#e9e9e9" d="M 237.207031 745.070312 L 221.15625 757.679688 C 220.917969 757.871094 220.734375 758.085938 220.511719 758.285156 C 224.101562 764.652344 227.730469 772.054688 230.621094 780.007812 C 230.734375 779.992188 230.839844 780.003906 230.957031 779.984375 L 251.78125 776.589844 C 248.066406 764.621094 242.355469 753.578125 237.207031 745.070312 " fill-opacity="1" fill-rule="nonzero"/><path fill="#e9e9e9" d="M 300.707031 695.164062 L 289.335938 704.101562 L 284.496094 707.902344 C 291.425781 717.382812 307.445312 741.605469 310.863281 766.964844 L 330.820312 763.707031 C 328.699219 729.273438 300.710938 695.171875 300.707031 695.164062 " fill-opacity="1" fill-rule="nonzero"/></svg>