<?xml version="1.0" encoding="UTF-8" standalone="no"?><!DOCTYPE svg PUBLIC "-//W3C//DTD SVG 1.1//EN" "http://www.w3.org/Graphics/SVG/1.1/DTD/svg11.dtd">
<svg width="100%" height="100%" viewBox="0 0 810 810" version="1.1" xmlns="http://www.w3.org/2000/svg"
     xml:space="preserve"
     style="fill-rule:evenodd;clip-rule:evenodd;stroke-linejoin:round;stroke-miterlimit:2;"><g><path d="M389.129,35.804c5.082,-0.338 10.171,-0.552 15.264,-0.641c5.094,-0.087 10.187,-0.05 15.278,0.111c5.092,0.162 10.176,0.447 15.252,0.857c5.078,0.412 10.143,0.949 15.193,1.609c5.052,0.659 10.085,1.442 15.098,2.349c5.013,0.907 10,1.937 14.96,3.091c4.963,1.151 9.894,2.423 14.794,3.817c4.9,1.395 9.762,2.91 14.588,4.543c4.825,1.633 9.607,3.383 14.345,5.249c4.741,1.869 9.432,3.852 14.075,5.95c4.642,2.098 9.23,4.309 13.763,6.633c4.533,2.322 9.007,4.756 13.42,7.301c4.413,2.542 8.762,5.191 13.047,7.948c4.283,2.756 8.496,5.617 12.639,8.582c4.145,2.963 8.214,6.027 12.206,9.191c3.993,3.162 7.906,6.421 11.739,9.776c3.831,3.356 7.578,6.804 11.242,10.343c3.665,3.541 7.24,7.168 10.725,10.882c3.484,3.715 6.876,7.514 10.175,11.395c3.299,3.883 6.501,7.844 9.606,11.883c3.103,4.038 6.106,8.15 9.008,12.337c2.902,4.187 5.701,8.442 8.396,12.766c2.693,4.324 5.278,8.711 7.755,13.162c2.479,4.452 4.846,8.962 7.101,13.528c2.257,4.568 4.4,9.187 6.43,13.858c2.03,4.673 3.944,9.392 5.741,14.159c1.799,4.767 3.479,9.575 5.04,14.424c1.561,4.848 3.004,9.731 4.327,14.65c1.322,4.922 2.522,9.871 3.601,14.849c1.077,4.979 2.032,9.981 2.865,15.007c0.836,5.024 1.545,10.066 2.13,15.127c0.586,5.061 1.047,10.133 1.383,15.216c0.336,5.083 0.548,10.171 0.635,15.265c0.087,5.093 0.049,10.186 -0.115,15.278c-0.163,5.091 -0.452,10.175 -0.866,15.251c-0.413,5.079 -0.95,10.143 -1.613,15.193c-0.661,5.052 -1.446,10.084 -2.355,15.095c-0.909,5.013 -1.941,10.001 -3.094,14.964c-1.154,4.96 -2.428,9.89 -3.824,14.79c-1.397,4.9 -2.913,9.761 -4.546,14.584c-1.635,4.826 -3.387,9.608 -5.256,14.346c-1.871,4.738 -3.856,9.429 -5.956,14.071c-2.1,4.64 -4.312,9.227 -6.637,13.76c-2.326,4.534 -4.762,9.006 -7.307,13.417c-2.544,4.413 -5.196,8.761 -7.954,13.044c-2.759,4.282 -5.62,8.495 -8.586,12.638c-2.963,4.143 -6.028,8.21 -9.194,12.2c-3.164,3.993 -6.425,7.905 -9.783,11.736c-3.358,3.831 -6.807,7.578 -10.346,11.241c-3.541,3.662 -7.17,7.234 -10.888,10.719c-3.716,3.484 -7.515,6.875 -11.399,10.172c-3.883,3.297 -7.845,6.497 -11.886,9.6c-4.038,3.103 -8.152,6.104 -12.34,9.004c-4.187,2.902 -8.443,5.699 -12.77,8.39c-4.324,2.693 -8.712,5.277 -13.164,7.752c-4.451,2.477 -8.96,4.842 -13.528,7.097c-4.569,2.255 -9.189,4.396 -13.862,6.424c-4.673,2.028 -9.394,3.94 -14.162,5.737c-4.767,1.794 -9.575,3.472 -14.425,5.034c-4.849,1.559 -9.734,2.999 -14.653,4.32c-4.921,1.32 -9.871,2.518 -14.849,3.595c-4.978,1.077 -9.98,2.031 -15.006,2.862c-5.027,0.831 -10.07,1.538 -15.131,2.123c-5.061,0.584 -10.133,1.043 -15.216,1.377c-5.08,0.333 -10.167,0.543 -15.258,0.628c-5.092,0.085 -10.181,0.044 -15.268,-0.121c-5.089,-0.164 -10.172,-0.453 -15.248,-0.867c-5.075,-0.414 -10.136,-0.954 -15.183,-1.619c-5.048,-0.663 -10.078,-1.449 -15.089,-2.358c-5.008,-0.91 -9.993,-1.942 -14.954,-3.098c-4.958,-1.153 -9.886,-2.428 -14.784,-3.823c-4.895,-1.398 -9.754,-2.915 -14.577,-4.55c-4.822,-1.633 -9.6,-3.385 -14.336,-5.256c-4.736,-1.869 -9.423,-3.853 -14.061,-5.953c-4.641,-2.1 -9.225,-4.312 -13.754,-6.636c-4.531,-2.325 -9.002,-4.759 -13.414,-7.304c-4.409,-2.543 -8.753,-5.193 -13.034,-7.951c-4.28,-2.757 -8.491,-5.617 -12.631,-8.583c-4.141,-2.963 -8.206,-6.027 -12.194,-9.191c-3.99,-3.164 -7.901,-6.423 -11.732,-9.776c-3.829,-3.356 -7.574,-6.803 -11.235,-10.342c-3.659,-3.542 -7.23,-7.169 -10.712,-10.882c-3.482,-3.716 -6.872,-7.513 -10.169,-11.393c-3.297,-3.881 -6.496,-7.841 -9.597,-11.879c-3.102,-4.038 -6.103,-8.15 -9.001,-12.334c-2.9,-4.187 -5.696,-8.441 -8.389,-12.763c-2.691,-4.322 -5.274,-8.708 -7.749,-13.158c-2.475,-4.448 -4.839,-8.956 -7.094,-13.522c-2.255,-4.566 -4.396,-9.183 -6.424,-13.851c-2.028,-4.671 -3.94,-9.389 -5.737,-14.153c-1.797,-4.764 -3.476,-9.57 -5.037,-14.418c-1.559,-4.847 -2.999,-9.729 -4.321,-14.646c-1.321,-4.917 -2.52,-9.864 -3.597,-14.84c-1.078,-4.976 -2.033,-9.976 -2.866,-15c-0.833,-5.024 -1.541,-10.064 -2.126,-15.12c-0.586,-5.059 -1.047,-10.129 -1.383,-15.21c-0.336,-5.08 -0.548,-10.166 -0.635,-15.258c-0.087,-5.089 -0.049,-10.178 0.115,-15.268c0.163,-5.089 0.451,-10.172 0.863,-15.248c0.412,-5.074 0.95,-10.135 1.613,-15.183c0.66,-5.05 1.444,-10.08 2.351,-15.088c0.91,-5.011 1.94,-9.997 3.091,-14.958c1.154,-4.958 2.427,-9.886 3.821,-14.784c1.395,-4.897 2.909,-9.756 4.543,-14.577c1.633,-4.824 3.383,-9.603 5.249,-14.34c1.869,-4.738 3.852,-9.426 5.95,-14.064c2.098,-4.64 4.307,-9.226 6.63,-13.757c2.324,-4.531 4.758,-9.002 7.3,-13.413c2.54,-4.412 5.189,-8.758 7.945,-13.041c2.756,-4.28 5.616,-8.492 8.579,-12.635c2.961,-4.141 6.023,-8.206 9.184,-12.197c3.164,-3.99 6.423,-7.901 9.777,-11.732c3.354,-3.831 6.799,-7.577 10.336,-11.239c3.539,-3.663 7.165,-7.236 10.878,-10.718c3.714,-3.484 7.51,-6.875 11.389,-10.172c3.879,-3.299 7.837,-6.5 11.873,-9.603c4.038,-3.103 8.15,-6.106 12.334,-9.008c4.185,-2.9 8.437,-5.696 12.756,-8.389c4.322,-2.693 8.707,-5.278 13.155,-7.755c4.449,-2.477 8.956,-4.844 13.522,-7.101c4.564,-2.257 9.18,-4.401 13.848,-6.431c4.671,-2.028 9.388,-3.941 14.153,-5.74c4.762,-1.799 9.567,-3.479 14.414,-5.04c4.845,-1.561 9.726,-3.004 14.644,-4.327c4.917,-1.324 9.863,-2.525 14.839,-3.605c4.976,-1.079 9.976,-2.036 15,-2.872c5.022,-0.833 10.062,-1.543 15.121,-2.132c5.056,-0.587 10.125,-1.049 15.206,-1.387Z" style="fill:#677660;fill-rule:nonzero;"/><path d="M404.495,56.351c13.194,-0.126 26.343,0.587 39.445,2.139c13.101,1.553 26.051,3.933 38.851,7.14c3.99,0.995 10.767,2.015 13.793,4.733c1.05,0.945 0.798,1.204 0.935,2.509c-2.603,5.397 -10.293,9.237 -14.823,13.135c-20.158,17.349 -31.73,45.291 -33.673,71.48c3.372,3.811 7.474,6.97 12.2,8.91c11.347,4.654 24.139,2.23 34.991,-2.62c20.652,-9.234 35.946,-27.21 43.652,-48.241c2.954,-8.066 4.811,-16.455 7.853,-24.518c1.548,0.827 3.083,1.675 4.605,2.545c7.454,4.267 14.709,8.847 21.768,13.74c7.058,4.894 13.891,10.083 20.498,15.569c6.609,5.484 12.969,11.244 19.081,17.28c6.11,6.036 11.949,12.323 17.515,18.863c4.929,5.681 11.16,11.787 13.178,19.15c-4.461,4.716 -25.656,8.37 -32.74,11.5c-13.139,5.812 -24.832,15.504 -33.987,26.474c-10.525,12.612 -17.966,27.147 -23.599,42.517c-9.57,26.104 -14.041,50.782 -36.838,69.353l-0.831,0.668c-27.243,21.633 -61.782,21.436 -94.634,17.577c1.969,-9.142 8.252,-18.163 13.06,-26.117c19.766,-32.682 47.669,-72.308 76.511,-97.398l3.437,1.23c5.626,1.992 10.862,5.05 16.688,2.28c2.456,-2.283 2.79,-5.433 3.522,-8.573c0.576,-3.241 0.887,-6.447 1.165,-9.724c-37.317,-6.705 -87.18,-28.943 -112.594,-56.539c-17.319,-18.81 -25.093,-40.724 -24.184,-66.145c-4.782,-0.703 -10.329,-3.552 -15.062,-3.218c-1.904,0.131 -3.509,0.762 -4.622,2.394c-4.242,6.201 0.818,30.546 2.807,37.585c9.848,34.856 38.451,60.368 69.259,77.242c11.274,6.176 23.252,10.915 34.5,17.133c-14.091,16.102 -28.103,32.315 -40.898,49.48c-8.605,11.546 -15.729,24.888 -25.872,35.142c-3.267,-5.263 -5.482,-11.537 -8.036,-17.195c-6.084,-13.476 -13.459,-25.385 -23.677,-36.142c-19.442,-20.459 -36.342,-25.444 -60.477,-37.182c-39.639,-19.278 -66.145,-62.204 -82.529,-101.666c9.453,-8.226 21.071,-14.467 32.214,-20.112c40.352,-20.446 82.408,-30.935 127.548,-32.378Z" style="fill:#fefefe;fill-rule:nonzero;"/><path d="M199.596,148.126c1.181,0.052 2.061,0.105 3.186,0.537c3.206,1.229 -0.909,25.914 -1.292,29.924c-2.312,24.279 0.661,49.938 10.477,72.399c15.202,34.794 44.979,58.171 79.542,72.124c10.725,4.33 21.986,7.353 32.655,11.785c2.378,0.987 4.102,1.527 5.116,3.97c-12.697,9.675 -26.526,15.834 -37.99,27.422c-34.18,34.547 -26.513,80.815 -60.081,116.071c-19.134,17.806 -38.2,22.794 -63.879,22.509c-37.604,-60.395 -53.147,-122.396 -45.16,-193.496c0.722,-6.068 1.635,-12.107 2.738,-18.117c1.106,-6.012 2.401,-11.981 3.886,-17.907c1.485,-5.929 3.157,-11.804 5.017,-17.623c1.858,-5.822 3.9,-11.579 6.126,-17.27c2.224,-5.691 4.627,-11.306 7.209,-16.845c2.584,-5.538 5.34,-10.988 8.269,-16.35c2.93,-5.364 6.028,-10.629 9.292,-15.795c3.264,-5.166 6.69,-10.222 10.277,-15.17c7.146,-9.982 15,-20.491 24.612,-28.168Z" style="fill:#fefefe;fill-rule:nonzero;"/><path d="M644.901,202.644c5.714,-0.563 11.183,-0.481 16.913,-0.197c6.744,12.917 13.446,25.957 18.745,39.544c2.27,5.94 4.345,11.947 6.224,18.022c1.878,6.075 3.556,12.206 5.034,18.392c1.476,6.184 2.75,12.41 3.82,18.679c1.071,6.269 1.935,12.567 2.594,18.892c0.658,6.324 1.11,12.663 1.354,19.017c0.244,6.354 0.281,12.71 0.111,19.068c-0.172,6.357 -0.55,12.701 -1.135,19.033c-0.586,6.332 -1.379,12.638 -2.378,18.918c-0.979,6.175 -2.158,12.311 -3.539,18.408c-1.378,6.099 -2.952,12.146 -4.723,18.14c-1.77,5.996 -3.734,11.929 -5.89,17.796c-2.159,5.868 -4.504,11.661 -7.036,17.378c-2.533,5.715 -5.249,11.342 -8.147,16.881c-2.9,5.538 -5.976,10.977 -9.227,16.317c-3.253,5.341 -6.676,10.568 -10.267,15.684c-3.591,5.118 -7.345,10.113 -11.261,14.987c-7.056,8.854 -14.559,18.401 -23.75,25.067c2.624,-15.576 5.816,-30.958 6.378,-46.798c0.22,-20.152 -1.746,-39.302 -8.818,-58.358c-11.905,-32.089 -36.619,-55.95 -66.766,-71.198c-11.042,-5.587 -22.696,-9.813 -33.912,-15.026c4.557,-5.207 10.375,-8.933 15.909,-13.008c9.633,-7.088 18.471,-15.193 25.228,-25.136c18.886,-27.789 20.331,-62.704 40.862,-90.012c13.646,-18.153 31.462,-27.465 53.677,-30.49Z" style="fill:#fefefe;fill-rule:nonzero;"/><path d="M375.542,353.97c4.841,-0.121 9.851,-0.461 14.309,1.723c1.299,6.382 -9.678,30.334 -12.186,37.618c-2.48,7.06 -4.715,14.197 -6.706,21.41c-1.99,7.216 -3.733,14.489 -5.226,21.82c-1.496,7.333 -2.739,14.708 -3.729,22.127c-0.992,7.416 -1.729,14.858 -2.211,22.326c-2.247,37.032 0.785,74.103 10.833,109.875c3.948,14.065 9.387,27.661 13.027,41.817l-1.069,0.969c-6.712,1.419 -14.339,-0.39 -21.071,-1.476c-34.954,-5.655 -66.066,-18.123 -97.027,-34.932c-26.265,-15.225 -64.248,-43.576 -79.013,-70.066c12.033,-4.151 24.642,-5.904 36.169,-11.612c28.338,-14.035 45.892,-42.84 55.521,-71.921c7.202,-21.751 11.474,-42.697 27.38,-60.366c18.591,-20.655 44.034,-27.912 70.999,-29.312Z" style="fill:#fefefe;fill-rule:nonzero;"/><path d="M399.988,398.037c0.323,0.111 0.664,0.186 0.971,0.337c4.324,2.132 14.97,25.757 18.402,31c4.422,6.758 9.756,13.63 15.578,19.242c16.168,15.586 35.05,23.566 55.156,32.453c42.278,18.693 66.56,63.058 85.403,102.879c-13.276,11.075 -30.634,19.272 -46.167,26.739c-38.249,17.149 -77.073,24.381 -118.769,26.137c-4.296,-8.696 -8.133,-17.589 -11.513,-26.68c-3.382,-9.09 -6.289,-18.33 -8.72,-27.72c-12.923,-48.45 -13.139,-96.684 -2.78,-145.599c2.832,-13.377 5.531,-26.83 12.439,-38.788Z" style="fill:#fefefe;fill-rule:nonzero;"/><path d="M419.972,369.061c22.82,-0.621 47.865,3.719 69.923,9.564c36.374,9.639 73.717,27.746 93.087,61.608c19.032,33.264 17.423,73.109 7.562,109.025c-0.772,2.588 -1.299,5.492 -3.261,7.451c-4.262,-2.911 -11.873,-20.318 -15.314,-25.806c-4.985,-8.11 -10.487,-15.851 -16.508,-23.226c-6.02,-7.375 -12.504,-14.315 -19.451,-20.822c-4.917,-4.614 -10.137,-8.856 -15.661,-12.726c-5.523,-3.871 -11.293,-7.329 -17.309,-10.375c-15.856,-7.873 -32.384,-13.178 -46.327,-24.535c-21.924,-17.861 -34.016,-42.268 -36.741,-70.158Z" style="fill:#fefefe;fill-rule:nonzero;"/><path d="M231.12,139.864c2.103,0.599 3.778,1.534 5.178,3.228c4.304,5.211 7.621,11.864 11.15,17.633c5.449,8.9 11.304,17.662 17.868,25.787c14.222,17.603 31.9,33.27 52.529,42.851c15.497,7.199 31.027,12.998 44.594,23.746c22.461,17.796 34.052,42.268 37.411,70.315c-2.322,0.19 -4.687,0.203 -7.019,0.288c-34.114,-2.018 -69.998,-8.763 -101.067,-23.321c-28.675,-13.436 -52.604,-34.922 -63.283,-65.318c-9.227,-26.254 -9.489,-69.936 2.639,-95.209Z" style="fill:#fefefe;fill-rule:nonzero;"/><path d="M517.527,89.494c0.788,0.056 2.139,0.108 2.858,0.376c1.78,0.661 2.934,2.162 3.382,3.961c1.299,5.21 -2.868,13.806 -5.033,18.483c-7.827,16.933 -21.1,28.541 -38.442,34.955c-0.942,-0.01 -2.535,0.102 -3.49,-0.16c-2.09,-0.569 -2.741,-1.338 -3.464,-3.356c-1.187,-3.33 0.929,-8.38 2.267,-11.428c8.458,-19.265 22.088,-35.092 41.922,-42.831Z" style="fill:#fefefe;fill-rule:nonzero;"/></g><g transform="matrix(90.8551,0,0,90.8551,630.955,766.077)"></g><text x="176.406px" y="766.077px" style="font-family:'Optima-Bold', 'Optima';font-weight:700;font-size:90.855px;fill:#677660;">since  1973</text></svg>