<?xml version="1.0" encoding="UTF-8" standalone="no"?><!DOCTYPE svg PUBLIC "-//W3C//DTD SVG 1.1//EN" "http://www.w3.org/Graphics/SVG/1.1/DTD/svg11.dtd"><svg width="100%" height="100%" viewBox="0 0 256 256" version="1.1" xmlns="http://www.w3.org/2000/svg" xmlns:xlink="http://www.w3.org/1999/xlink" xml:space="preserve" xmlns:serif="http://www.serif.com/" style="fill-rule:evenodd;clip-rule:evenodd;stroke-linejoin:round;stroke-miterlimit:2;"><circle cx="128" cy="128" r="128" style="fill:#808080;"/><g><path d="M119.702,3.376c2.04,-0.136 4.083,-0.222 6.128,-0.258c2.044,-0.035 4.089,-0.02 6.133,0.045c2.043,0.065 4.084,0.179 6.122,0.344c2.039,0.165 4.071,0.381 6.099,0.646c2.028,0.264 4.048,0.578 6.06,0.942c2.013,0.364 4.015,0.778 6.006,1.241c1.992,0.462 3.972,0.973 5.938,1.532c1.967,0.56 3.919,1.168 5.856,1.823c1.937,0.656 3.857,1.358 5.759,2.107c1.903,0.75 3.786,1.546 5.65,2.388c1.863,0.842 3.705,1.73 5.525,2.662c1.819,0.933 3.615,1.909 5.387,2.931c1.771,1.02 3.517,2.083 5.237,3.19c1.719,1.106 3.41,2.254 5.074,3.444c1.664,1.19 3.297,2.419 4.9,3.689c1.602,1.269 3.173,2.577 4.712,3.924c1.538,1.347 3.042,2.73 4.513,4.151c1.471,1.421 2.906,2.877 4.305,4.367c1.399,1.492 2.76,3.016 4.084,4.574c1.325,1.559 2.61,3.148 3.857,4.769c1.245,1.621 2.45,3.272 3.616,4.952c1.165,1.68 2.288,3.388 3.37,5.124c1.081,1.735 2.119,3.496 3.113,5.282c0.995,1.787 1.945,3.597 2.85,5.43c0.906,1.833 1.767,3.687 2.582,5.562c0.815,1.875 1.583,3.77 2.304,5.683c0.722,1.913 1.397,3.842 2.023,5.789c0.627,1.945 1.206,3.905 1.737,5.88c0.531,1.975 1.013,3.962 1.446,5.96c0.432,1.998 0.816,4.005 1.15,6.022c0.335,2.017 0.62,4.041 0.855,6.072c0.235,2.031 0.42,4.067 0.555,6.107c0.135,2.04 0.22,4.082 0.255,6.126c0.035,2.045 0.02,4.089 -0.046,6.132c-0.066,2.044 -0.182,4.084 -0.348,6.122c-0.165,2.038 -0.381,4.071 -0.647,6.097c-0.265,2.028 -0.581,4.048 -0.946,6.059c-0.365,2.012 -0.779,4.014 -1.242,6.006c-0.463,1.991 -0.974,3.969 -1.534,5.936c-0.562,1.966 -1.17,3.918 -1.826,5.853c-0.656,1.937 -1.359,3.856 -2.109,5.758c-0.751,1.902 -1.548,3.784 -2.391,5.648c-0.843,1.862 -1.731,3.703 -2.664,5.522c-0.934,1.82 -1.912,3.615 -2.934,5.385c-1.021,1.772 -2.085,3.517 -3.193,5.236c-1.107,1.718 -2.256,3.409 -3.446,5.072c-1.19,1.663 -2.42,3.295 -3.691,4.897c-1.27,1.602 -2.579,3.172 -3.927,4.71c-1.348,1.537 -2.732,3.041 -4.153,4.512c-1.422,1.469 -2.879,2.903 -4.371,4.302c-1.491,1.398 -3.017,2.759 -4.576,4.082c-1.559,1.324 -3.149,2.608 -4.771,3.853c-1.621,1.246 -3.272,2.45 -4.954,3.614c-1.68,1.165 -3.389,2.287 -5.126,3.367c-1.735,1.081 -3.497,2.118 -5.284,3.112c-1.787,0.994 -3.597,1.943 -5.431,2.848c-1.834,0.905 -3.688,1.765 -5.564,2.579c-1.876,0.813 -3.771,1.581 -5.685,2.302c-1.914,0.72 -3.844,1.394 -5.791,2.02c-1.946,0.626 -3.907,1.204 -5.882,1.735c-1.975,0.529 -3.962,1.01 -5.961,1.442c-1.998,0.433 -4.006,0.816 -6.023,1.149c-2.018,0.333 -4.043,0.617 -6.074,0.852c-2.032,0.234 -4.068,0.419 -6.108,0.553c-2.04,0.133 -4.081,0.218 -6.125,0.252c-2.044,0.034 -4.087,0.018 -6.129,-0.049c-2.043,-0.066 -4.084,-0.182 -6.121,-0.348c-2.037,-0.166 -4.069,-0.383 -6.095,-0.65c-2.026,-0.266 -4.045,-0.581 -6.057,-0.946c-2.01,-0.365 -4.011,-0.779 -6.003,-1.243c-1.99,-0.463 -3.968,-0.975 -5.934,-1.535c-1.965,-0.561 -3.916,-1.17 -5.852,-1.826c-1.936,-0.655 -3.854,-1.359 -5.755,-2.11c-1.901,-0.75 -3.783,-1.546 -5.644,-2.389c-1.863,-0.843 -3.704,-1.73 -5.522,-2.663c-1.818,-0.933 -3.613,-1.91 -5.384,-2.932c-1.77,-1.02 -3.514,-2.084 -5.232,-3.191c-1.718,-1.106 -3.409,-2.254 -5.071,-3.445c-1.662,-1.189 -3.294,-2.419 -4.895,-3.688c-1.601,-1.27 -3.171,-2.578 -4.709,-3.924c-1.537,-1.347 -3.041,-2.731 -4.51,-4.151c-1.469,-1.421 -2.902,-2.877 -4.3,-4.368c-1.398,-1.491 -2.759,-3.015 -4.082,-4.572c-1.324,-1.558 -2.608,-3.147 -3.853,-4.768c-1.245,-1.621 -2.45,-3.271 -3.613,-4.95c-1.164,-1.681 -2.287,-3.388 -3.368,-5.123c-1.08,-1.734 -2.117,-3.495 -3.11,-5.281c-0.994,-1.785 -1.943,-3.594 -2.848,-5.427c-0.905,-1.832 -1.765,-3.686 -2.579,-5.559c-0.814,-1.875 -1.581,-3.768 -2.303,-5.681c-0.721,-1.912 -1.395,-3.841 -2.022,-5.786c-0.625,-1.946 -1.204,-3.905 -1.734,-5.879c-0.53,-1.973 -1.012,-3.959 -1.444,-5.956c-0.433,-1.997 -0.816,-4.004 -1.15,-6.02c-0.335,-2.016 -0.619,-4.039 -0.854,-6.069c-0.235,-2.03 -0.42,-4.065 -0.555,-6.104c-0.135,-2.039 -0.22,-4.081 -0.255,-6.124c-0.035,-2.043 -0.02,-4.085 0.046,-6.128c0.066,-2.043 0.181,-4.083 0.347,-6.12c0.165,-2.037 0.381,-4.068 0.647,-6.094c0.265,-2.027 0.58,-4.045 0.944,-6.056c0.365,-2.011 0.779,-4.012 1.241,-6.003c0.463,-1.99 0.974,-3.968 1.533,-5.933c0.56,-1.966 1.168,-3.916 1.824,-5.851c0.656,-1.936 1.358,-3.855 2.107,-5.756c0.75,-1.901 1.547,-3.783 2.389,-5.644c0.842,-1.863 1.729,-3.703 2.661,-5.522c0.933,-1.818 1.91,-3.613 2.931,-5.383c1.019,-1.771 2.082,-3.515 3.189,-5.234c1.106,-1.718 2.254,-3.409 3.444,-5.071c1.188,-1.662 2.417,-3.294 3.686,-4.896c1.271,-1.601 2.579,-3.171 3.925,-4.709c1.346,-1.537 2.729,-3.041 4.149,-4.51c1.421,-1.47 2.876,-2.904 4.367,-4.302c1.491,-1.399 3.014,-2.759 4.572,-4.083c1.557,-1.324 3.146,-2.609 4.766,-3.854c1.621,-1.245 3.271,-2.45 4.951,-3.615c1.68,-1.164 3.387,-2.287 5.121,-3.368c1.734,-1.08 3.495,-2.118 5.28,-3.112c1.786,-0.994 3.595,-1.944 5.428,-2.85c1.832,-0.906 3.685,-1.766 5.559,-2.581c1.875,-0.814 3.769,-1.582 5.681,-2.304c1.912,-0.722 3.841,-1.396 5.787,-2.023c1.945,-0.626 3.904,-1.205 5.878,-1.737c1.974,-0.531 3.959,-1.013 5.957,-1.446c1.997,-0.433 4.004,-0.818 6.021,-1.153c2.016,-0.334 4.039,-0.619 6.07,-0.856c2.03,-0.235 4.065,-0.421 6.104,-0.556Z" style="fill:#677660;fill-rule:nonzero;"/><path d="M125.87,11.622c5.297,-0.05 10.575,0.236 15.835,0.859c5.259,0.623 10.457,1.578 15.595,2.866c1.602,0.399 4.323,0.808 5.537,1.899c0.422,0.38 0.32,0.483 0.376,1.007c-1.046,2.166 -4.132,3.707 -5.951,5.272c-8.092,6.963 -12.737,18.178 -13.517,28.689c1.354,1.529 3,2.798 4.898,3.576c4.554,1.868 9.689,0.895 14.046,-1.052c8.29,-3.705 14.429,-10.92 17.523,-19.361c1.185,-3.238 1.931,-6.605 3.152,-9.841c0.622,0.332 1.238,0.672 1.849,1.022c2.992,1.712 5.904,3.551 8.738,5.514c2.833,1.964 5.576,4.047 8.228,6.249c2.653,2.201 5.206,4.513 7.66,6.935c2.452,2.423 4.796,4.946 7.031,7.571c1.978,2.28 4.48,4.731 5.29,7.686c-1.791,1.893 -10.299,3.36 -13.143,4.616c-5.274,2.333 -9.968,6.222 -13.643,10.625c-4.225,5.062 -7.212,10.896 -9.473,17.065c-3.842,10.477 -5.637,20.382 -14.788,27.835l-0.334,0.268c-10.936,8.683 -24.8,8.604 -37.988,7.055c0.79,-3.669 3.313,-7.29 5.243,-10.482c7.934,-13.117 19.135,-29.021 30.713,-39.092l1.38,0.494c2.258,0.8 4.36,2.027 6.698,0.915c0.987,-0.916 1.12,-2.18 1.415,-3.441c0.231,-1.301 0.355,-2.587 0.467,-3.903c-14.98,-2.691 -34.996,-11.616 -45.198,-22.692c-6.952,-7.549 -10.073,-16.345 -9.708,-26.548c-1.919,-0.282 -4.146,-1.425 -6.046,-1.291c-0.764,0.052 -1.409,0.306 -1.855,0.961c-1.703,2.489 0.328,12.259 1.126,15.084c3.954,13.99 15.435,24.23 27.802,31.002c4.526,2.479 9.334,4.381 13.85,6.877c-5.657,6.462 -11.281,12.97 -16.418,19.859c-3.454,4.634 -6.314,9.989 -10.385,14.104c-1.312,-2.112 -2.201,-4.63 -3.226,-6.901c-2.443,-5.409 -5.403,-10.188 -9.505,-14.506c-7.804,-8.211 -14.588,-10.212 -24.277,-14.923c-15.912,-7.738 -26.552,-24.966 -33.129,-40.805c3.795,-3.301 8.458,-5.806 12.932,-8.072c16.198,-8.206 33.08,-12.416 51.2,-12.995Z" style="fill:#fefefe;fill-rule:nonzero;"/><path d="M43.619,48.457c0.474,0.021 0.827,0.042 1.279,0.215c1.287,0.494 -0.365,10.401 -0.519,12.011c-0.928,9.744 0.266,20.043 4.206,29.057c6.103,13.965 18.056,23.348 31.93,28.948c4.305,1.738 8.826,2.951 13.109,4.73c0.954,0.396 1.646,0.613 2.053,1.593c-5.097,3.884 -10.648,6.355 -15.25,11.007c-13.72,13.865 -10.643,32.435 -24.118,46.585c-7.681,7.147 -15.334,9.149 -25.642,9.035c-15.095,-24.24 -21.335,-49.125 -18.128,-77.662c0.289,-2.435 0.656,-4.859 1.099,-7.271c0.443,-2.413 0.963,-4.809 1.559,-7.187c0.596,-2.38 1.268,-4.738 2.014,-7.073c0.746,-2.337 1.566,-4.648 2.46,-6.932c0.892,-2.284 1.857,-4.537 2.893,-6.76c1.038,-2.223 2.144,-4.411 3.32,-6.563c1.176,-2.153 2.419,-4.266 3.73,-6.339c1.31,-2.073 2.685,-4.103 4.125,-6.089c2.869,-4.006 6.021,-8.224 9.88,-11.305Z" style="fill:#fefefe;fill-rule:nonzero;"/><path d="M222.375,70.338c2.294,-0.226 4.489,-0.193 6.789,-0.079c2.708,5.184 5.398,10.418 7.525,15.871c0.911,2.384 1.744,4.795 2.499,7.234c0.753,2.438 1.427,4.898 2.02,7.381c0.593,2.482 1.104,4.981 1.534,7.497c0.43,2.516 0.777,5.044 1.041,7.583c0.264,2.538 0.446,5.082 0.544,7.632c0.098,2.55 0.113,5.101 0.044,7.653c-0.069,2.552 -0.221,5.098 -0.455,7.639c-0.236,2.542 -0.554,5.073 -0.955,7.593c-0.393,2.479 -0.866,4.942 -1.42,7.388c-0.554,2.448 -1.186,4.875 -1.896,7.281c-0.711,2.407 -1.499,4.788 -2.365,7.143c-0.867,2.355 -1.808,4.68 -2.824,6.974c-1.017,2.294 -2.108,4.553 -3.271,6.775c-1.164,2.223 -2.399,4.406 -3.704,6.55c-1.306,2.143 -2.68,4.241 -4.121,6.294c-1.442,2.054 -2.949,4.059 -4.521,6.015c-2.832,3.554 -5.844,7.386 -9.533,10.061c1.053,-6.251 2.334,-12.425 2.56,-18.782c0.088,-8.088 -0.701,-15.775 -3.54,-23.423c-4.779,-12.879 -14.7,-22.456 -26.801,-28.576c-4.433,-2.242 -9.111,-3.938 -13.613,-6.03c1.829,-2.09 4.164,-3.586 6.386,-5.221c3.867,-2.845 7.414,-6.098 10.127,-10.089c7.581,-11.153 8.161,-25.166 16.403,-36.127c5.478,-7.285 12.629,-11.023 21.547,-12.237Z" style="fill:#fefefe;fill-rule:nonzero;"/><path d="M114.248,131.074c1.943,-0.049 3.955,-0.185 5.744,0.692c0.521,2.561 -3.885,12.174 -4.892,15.097c-0.995,2.834 -1.892,5.699 -2.692,8.594c-0.799,2.896 -1.498,5.815 -2.098,8.757c-0.6,2.943 -1.099,5.904 -1.496,8.881c-0.399,2.976 -0.695,5.963 -0.888,8.961c-0.902,14.863 0.315,29.741 4.349,44.099c1.584,5.645 3.768,11.102 5.229,16.784l-0.429,0.388c-2.694,0.57 -5.756,-0.156 -8.458,-0.592c-14.032,-2.27 -26.521,-7.274 -38.95,-14.02c-10.543,-6.111 -25.79,-17.49 -31.717,-28.122c4.83,-1.666 9.892,-2.369 14.519,-4.66c11.375,-5.633 18.422,-17.195 22.287,-28.866c2.892,-8.73 4.606,-17.137 10.991,-24.228c7.463,-8.29 17.677,-11.203 28.501,-11.765Z" style="fill:#fefefe;fill-rule:nonzero;"/><path d="M124.061,148.76c0.13,0.045 0.267,0.075 0.39,0.136c1.736,0.856 6.01,10.338 7.387,12.442c1.775,2.712 3.916,5.47 6.253,7.723c6.491,6.255 14.07,9.458 22.141,13.025c16.972,7.502 26.719,25.308 34.283,41.291c-5.329,4.445 -12.297,7.735 -18.532,10.732c-15.354,6.883 -30.939,9.785 -47.677,10.49c-1.724,-3.49 -3.265,-7.059 -4.622,-10.708c-1.357,-3.649 -2.524,-7.357 -3.5,-11.126c-5.188,-19.445 -5.274,-38.804 -1.116,-58.437c1.137,-5.369 2.22,-10.768 4.993,-15.568Z" style="fill:#fefefe;fill-rule:nonzero;"/><path d="M132.083,137.131c9.161,-0.25 19.214,1.492 28.069,3.838c14.602,3.869 29.592,11.136 37.367,24.727c7.64,13.351 6.994,29.343 3.036,43.758c-0.31,1.039 -0.521,2.204 -1.309,2.991c-1.711,-1.169 -4.766,-8.155 -6.148,-10.358c-2.001,-3.255 -4.209,-6.362 -6.626,-9.322c-2.417,-2.96 -5.02,-5.745 -7.808,-8.357c-1.974,-1.852 -4.07,-3.554 -6.287,-5.108c-2.217,-1.553 -4.533,-2.941 -6.948,-4.164c-6.365,-3.16 -13,-5.289 -18.597,-9.847c-8.801,-7.169 -13.655,-16.964 -14.749,-28.158Z" style="fill:#fefefe;fill-rule:nonzero;"/><path d="M56.274,45.141c0.844,0.24 1.516,0.616 2.078,1.296c1.728,2.091 3.059,4.761 4.476,7.077c2.187,3.572 4.538,7.089 7.173,10.349c5.709,7.066 12.805,13.354 21.086,17.199c6.221,2.889 12.455,5.217 17.901,9.53c9.016,7.143 13.67,16.965 15.018,28.222c-0.932,0.076 -1.882,0.081 -2.818,0.115c-13.694,-0.81 -28.099,-3.516 -40.571,-9.36c-11.51,-5.392 -21.116,-14.016 -25.403,-26.215c-3.704,-10.538 -3.809,-28.069 1.06,-38.213Z" style="fill:#fefefe;fill-rule:nonzero;"/><path d="M171.244,24.925c0.316,0.022 0.859,0.043 1.148,0.151c0.714,0.265 1.177,0.867 1.357,1.589c0.521,2.091 -1.151,5.541 -2.02,7.419c-3.142,6.796 -8.47,11.455 -15.432,14.029c-0.378,-0.004 -1.017,0.041 -1.401,-0.064c-0.839,-0.229 -1.1,-0.537 -1.39,-1.347c-0.477,-1.337 0.373,-3.363 0.91,-4.587c3.395,-7.732 8.866,-14.084 16.828,-17.19Z" style="fill:#fefefe;fill-rule:nonzero;"/></g></svg>