<?xml version="1.0" encoding="UTF-8" standalone="no"?><!DOCTYPE svg PUBLIC "-//W3C//DTD SVG 1.1//EN" "http://www.w3.org/Graphics/SVG/1.1/DTD/svg11.dtd"><svg width="100%" height="100%" viewBox="0 0 4167 1389" version="1.1" xmlns="http://www.w3.org/2000/svg" xmlns:xlink="http://www.w3.org/1999/xlink" xml:space="preserve" xmlns:serif="http://www.serif.com/" style="fill-rule:evenodd;clip-rule:evenodd;stroke-linejoin:round;stroke-miterlimit:2;"><g><g><path d="M682.888,60.119c8.634,-0.574 17.276,-0.937 25.928,-1.089c8.652,-0.148 17.302,-0.085 25.95,0.189c8.648,0.274 17.283,0.759 25.906,1.456c8.626,0.7 17.227,1.611 25.805,2.733c8.582,1.119 17.13,2.448 25.645,3.989c8.515,1.541 16.985,3.291 25.411,5.25c8.429,1.956 16.805,4.117 25.128,6.483c8.322,2.371 16.581,4.943 24.777,7.717c8.197,2.774 16.319,5.746 24.367,8.917c8.052,3.174 16.02,6.542 23.906,10.105c7.885,3.563 15.677,7.319 23.377,11.267c7.7,3.944 15.299,8.078 22.795,12.4c7.496,4.318 14.883,8.818 22.161,13.5c7.274,4.681 14.43,9.541 21.467,14.578c7.04,5.033 13.951,10.237 20.733,15.611c6.781,5.37 13.428,10.905 19.939,16.605c6.507,5.7 12.872,11.556 19.094,17.567c6.226,6.015 12.298,12.176 18.217,18.483c5.918,6.311 11.68,12.763 17.283,19.356c5.604,6.596 11.043,13.324 16.317,20.183c5.27,6.859 10.37,13.845 15.3,20.956c4.93,7.111 9.683,14.339 14.261,21.683c4.574,7.345 8.965,14.796 13.172,22.356c4.211,7.563 8.232,15.222 12.061,22.977c3.834,7.76 7.474,15.606 10.923,23.539c3.448,7.937 6.698,15.954 9.75,24.05c3.055,8.097 5.909,16.263 8.561,24.5c2.652,8.234 5.102,16.528 7.35,24.884c2.244,8.359 4.283,16.766 6.116,25.222c1.83,8.455 3.452,16.952 4.867,25.489c1.419,8.533 2.624,17.098 3.617,25.694c0.996,8.596 1.779,17.211 2.35,25.845c0.57,8.633 0.929,17.276 1.077,25.927c0.149,8.652 0.084,17.302 -0.194,25.95c-0.278,8.649 -0.768,17.284 -1.472,25.906c-0.7,8.626 -1.613,17.228 -2.739,25.806c-1.122,8.581 -2.456,17.127 -4,25.638c-1.545,8.515 -3.296,16.987 -5.256,25.417c-1.959,8.426 -4.124,16.8 -6.494,25.122c-2.374,8.323 -4.948,16.58 -7.722,24.773c-2.778,8.196 -5.754,16.318 -8.928,24.366c-3.178,8.048 -6.55,16.015 -10.117,23.9c-3.566,7.882 -7.324,15.672 -11.272,23.372c-3.952,7.7 -8.089,15.297 -12.411,22.789c-4.322,7.497 -8.826,14.882 -13.511,22.156c-4.685,7.274 -9.546,14.429 -14.584,21.467c-5.033,7.037 -10.238,13.944 -15.616,20.722c-5.374,6.781 -10.913,13.426 -16.617,19.933c-5.704,6.507 -11.561,12.872 -17.572,19.095c-6.015,6.218 -12.18,12.287 -18.495,18.205c-6.311,5.919 -12.764,11.678 -19.361,17.278c-6.596,5.6 -13.326,11.035 -20.189,16.305c-6.859,5.271 -13.846,10.369 -20.961,15.295c-7.111,4.929 -14.34,9.679 -21.689,14.25c-7.344,4.574 -14.798,8.963 -22.361,13.167c-7.559,4.207 -15.218,8.225 -22.977,12.055c-7.76,3.83 -15.608,7.467 -23.545,10.911c-7.937,3.445 -15.955,6.693 -24.055,9.745c-8.097,3.048 -16.263,5.898 -24.5,8.55c-8.237,2.648 -16.534,5.094 -24.889,7.339c-8.36,2.24 -16.767,4.275 -25.223,6.105c-8.455,1.83 -16.951,3.45 -25.488,4.861c-8.537,1.411 -17.104,2.613 -25.7,3.606c-8.597,0.992 -17.212,1.772 -25.845,2.339c-8.629,0.566 -17.268,0.922 -25.917,1.066c-8.648,0.145 -17.292,0.076 -25.933,-0.205c-8.644,-0.278 -17.278,-0.769 -25.9,-1.472c-8.618,-0.704 -17.215,-1.621 -25.789,-2.75c-8.574,-1.126 -17.116,-2.462 -25.628,-4.006c-8.507,-1.544 -16.974,-3.298 -25.4,-5.261c-8.422,-1.959 -16.792,-4.124 -25.111,-6.495c-8.314,-2.374 -16.568,-4.95 -24.761,-7.727c-8.189,-2.774 -16.305,-5.75 -24.35,-8.928c-8.044,-3.174 -16.005,-6.545 -23.883,-10.111c-7.882,-3.567 -15.669,-7.324 -23.361,-11.272c-7.696,-3.949 -15.291,-8.084 -22.784,-12.406c-7.488,-4.319 -14.868,-8.82 -22.138,-13.506c-7.271,-4.681 -14.423,-9.54 -21.456,-14.577c-7.033,-5.034 -13.937,-10.237 -20.711,-15.611c-6.778,-5.375 -13.42,-10.91 -19.928,-16.606c-6.504,-5.7 -12.865,-11.556 -19.083,-17.567c-6.215,-6.015 -12.28,-12.176 -18.195,-18.483c-5.914,-6.311 -11.672,-12.761 -17.272,-19.35c-5.6,-6.593 -11.033,-13.319 -16.3,-20.178c-5.27,-6.859 -10.367,-13.842 -15.289,-20.95c-4.926,-7.111 -9.676,-14.337 -14.25,-21.678c-4.57,-7.34 -8.957,-14.79 -13.161,-22.35c-4.204,-7.555 -8.22,-15.211 -12.05,-22.966c-3.829,-7.756 -7.467,-15.598 -10.911,-23.528c-3.444,-7.933 -6.693,-15.946 -9.744,-24.039c-3.052,-8.093 -5.904,-16.255 -8.556,-24.489c-2.648,-8.233 -5.094,-16.526 -7.339,-24.878c-2.244,-8.351 -4.281,-16.753 -6.111,-25.205c-1.83,-8.452 -3.452,-16.945 -4.867,-25.478c-1.414,-8.533 -2.618,-17.094 -3.611,-25.683c-0.996,-8.593 -1.779,-17.204 -2.35,-25.834c-0.57,-8.629 -0.929,-17.268 -1.078,-25.916c-0.148,-8.645 -0.083,-17.289 0.195,-25.934c0.278,-8.644 0.767,-17.277 1.467,-25.9c0.7,-8.618 1.613,-17.214 2.738,-25.788c1.123,-8.578 2.454,-17.121 3.995,-25.628c1.544,-8.511 3.294,-16.98 5.25,-25.406c1.959,-8.422 4.122,-16.792 6.489,-25.111c2.37,-8.318 4.942,-16.572 7.716,-24.761c2.775,-8.193 5.747,-16.311 8.917,-24.356c3.174,-8.048 6.543,-16.011 10.106,-23.888c3.563,-7.882 7.316,-15.671 11.261,-23.367c3.948,-7.696 8.081,-15.291 12.4,-22.783c4.315,-7.493 8.813,-14.876 13.494,-22.15c4.682,-7.271 9.539,-14.425 14.572,-21.462c5.03,-7.033 10.23,-13.938 15.6,-20.716c5.375,-6.778 10.91,-13.421 16.606,-19.928c5.696,-6.507 11.548,-12.87 17.556,-19.089c6.011,-6.222 12.17,-12.291 18.477,-18.205c6.308,-5.919 12.756,-11.678 19.345,-17.278c6.589,-5.604 13.311,-11.041 20.166,-16.311c6.86,-5.271 13.843,-10.371 20.95,-15.3c7.108,-4.926 14.33,-9.676 21.667,-14.25c7.341,-4.574 14.789,-8.965 22.345,-13.173c7.555,-4.207 15.211,-8.227 22.966,-12.061c7.752,-3.833 15.593,-7.474 23.522,-10.922c7.934,-3.444 15.947,-6.694 24.039,-9.75c8.089,-3.055 16.25,-5.909 24.484,-8.561c8.229,-2.652 16.52,-5.102 24.872,-7.35c8.352,-2.248 16.754,-4.289 25.205,-6.122c8.452,-1.834 16.945,-3.46 25.478,-4.878c8.53,-1.415 17.091,-2.622 25.684,-3.622c8.588,-0.997 17.198,-1.782 25.827,-2.356Z" style="fill:#677660;fill-rule:nonzero;"/><path d="M708.988,95.019c22.411,-0.215 44.745,0.996 67,3.634c22.252,2.637 44.249,6.679 65.989,12.127c6.778,1.689 18.289,3.423 23.428,8.039c1.783,1.606 1.356,2.045 1.589,4.261c-4.422,9.167 -17.483,15.689 -25.178,22.311c-34.239,29.467 -53.894,76.928 -57.194,121.412c5.727,6.472 12.694,11.838 20.722,15.133c19.272,7.905 41,3.789 59.433,-4.45c35.078,-15.683 61.056,-46.217 74.145,-81.939c5.016,-13.7 8.172,-27.95 13.339,-41.644c2.629,1.403 5.237,2.844 7.822,4.322c12.659,7.248 24.983,15.028 36.972,23.339c11.989,8.311 23.594,17.126 34.817,26.444c11.226,9.315 22.029,19.098 32.411,29.35c10.378,10.252 20.294,20.932 29.75,32.039c8.372,9.65 18.955,20.022 22.383,32.528c-7.578,8.011 -43.578,14.216 -55.611,19.533c-22.317,9.872 -42.178,26.333 -57.728,44.967c-17.878,21.422 -30.516,46.111 -40.083,72.216c-16.256,44.339 -23.85,86.256 -62.572,117.8l-1.411,1.134c-46.273,36.744 -104.939,36.411 -160.739,29.855c3.344,-15.527 14.016,-30.85 22.183,-44.361c33.572,-55.511 80.967,-122.816 129.956,-165.433l5.838,2.089c9.556,3.383 18.45,8.578 28.345,3.872c4.172,-3.878 4.739,-9.228 5.983,-14.561c0.978,-5.506 1.506,-10.95 1.978,-16.517c-63.383,-11.389 -148.078,-49.161 -191.244,-96.033c-29.417,-31.95 -42.623,-69.172 -41.078,-112.35c-8.122,-1.195 -17.545,-6.033 -25.584,-5.467c-3.233,0.222 -5.961,1.295 -7.85,4.067c-7.205,10.533 1.389,51.883 4.767,63.839c16.728,59.205 65.311,102.539 117.639,131.2c19.15,10.489 39.494,18.539 58.6,29.1c-23.933,27.35 -47.733,54.889 -69.467,84.044c-14.616,19.611 -26.716,42.272 -43.944,59.689c-5.55,-8.939 -9.311,-19.594 -13.65,-29.205c-10.333,-22.889 -22.861,-43.117 -40.217,-61.389c-33.022,-34.75 -61.728,-43.217 -102.722,-63.156c-67.328,-32.744 -112.35,-105.655 -140.178,-172.683c16.056,-13.972 35.789,-24.572 54.717,-34.161c68.539,-34.728 139.972,-52.545 216.644,-54.995Z" style="fill:#fefefe;fill-rule:nonzero;"/><path d="M360.961,250.903c2.005,0.088 3.5,0.177 5.411,0.911c5.444,2.089 -1.545,44.016 -2.195,50.827c-3.928,41.239 1.122,84.823 17.795,122.973c25.822,59.1 76.4,98.805 135.105,122.505c18.217,7.356 37.345,12.489 55.467,20.017c4.039,1.678 6.967,2.594 8.689,6.744c-21.567,16.434 -45.056,26.895 -64.528,46.578c-58.056,58.678 -45.033,137.267 -102.05,197.15c-32.5,30.245 -64.883,38.717 -108.5,38.233c-63.872,-102.583 -90.272,-207.894 -76.706,-328.661c1.226,-10.307 2.776,-20.565 4.65,-30.772c1.878,-10.211 4.078,-20.35 6.6,-30.417c2.523,-10.07 5.363,-20.048 8.523,-29.933c3.155,-9.889 6.624,-19.667 10.405,-29.333c3.778,-9.667 7.86,-19.204 12.245,-28.611c4.389,-9.408 9.07,-18.665 14.044,-27.773c4.978,-9.111 10.239,-18.053 15.783,-26.827c5.545,-8.774 11.363,-17.363 17.456,-25.767c12.139,-16.956 25.478,-34.806 41.806,-47.844Z" style="fill:#fefefe;fill-rule:nonzero;"/><path d="M1117.33,343.503c9.706,-0.956 18.995,-0.817 28.728,-0.334c11.456,21.939 22.839,44.089 31.839,67.167c3.855,10.089 7.38,20.292 10.572,30.611c3.189,10.318 6.039,20.731 8.55,31.239c2.508,10.504 4.671,21.079 6.489,31.728c1.819,10.648 3.287,21.344 4.406,32.089c1.118,10.74 1.885,21.507 2.3,32.3c0.414,10.792 0.477,21.588 0.188,32.388c-0.292,10.797 -0.935,21.573 -1.927,32.328c-0.997,10.756 -2.343,21.467 -4.039,32.134c-1.663,10.488 -3.667,20.911 -6.011,31.266c-2.341,10.359 -5.015,20.63 -8.023,30.811c-3.007,10.185 -6.342,20.261 -10.005,30.228c-3.667,9.967 -7.65,19.806 -11.95,29.517c-4.304,9.707 -8.917,19.265 -13.839,28.672c-4.926,9.407 -10.15,18.646 -15.672,27.717c-5.526,9.07 -11.339,17.95 -17.439,26.639c-6.1,8.692 -12.476,17.177 -19.128,25.455c-11.983,15.039 -24.728,31.256 -40.339,42.578c4.456,-26.456 9.878,-52.583 10.834,-79.489c0.372,-34.228 -2.967,-66.756 -14.978,-99.122c-20.222,-54.506 -62.2,-95.034 -113.406,-120.934c-18.755,-9.488 -38.55,-16.666 -57.6,-25.522c7.739,-8.844 17.622,-15.172 27.022,-22.094c16.362,-12.039 31.373,-25.806 42.85,-42.695c32.078,-47.2 34.534,-106.505 69.406,-152.889c23.178,-30.833 53.439,-46.65 91.172,-51.788Z" style="fill:#fefefe;fill-rule:nonzero;"/><path d="M659.811,600.536c8.222,-0.206 16.733,-0.783 24.305,2.928c2.206,10.839 -16.439,51.522 -20.7,63.894c-4.211,11.993 -8.007,24.115 -11.389,36.367c-3.381,12.255 -6.34,24.609 -8.878,37.061c-2.54,12.455 -4.651,24.983 -6.333,37.583c-1.685,12.596 -2.937,25.237 -3.755,37.922c-3.817,62.9 1.333,125.867 18.4,186.628c6.705,23.889 15.944,46.984 22.127,71.028l-1.816,1.644c-11.4,2.412 -24.356,-0.661 -35.789,-2.505c-59.372,-9.606 -112.217,-30.783 -164.806,-59.333c-44.611,-25.862 -109.128,-74.017 -134.205,-119.012c20.439,-7.05 41.855,-10.027 61.433,-19.722c48.133,-23.839 77.95,-72.766 94.306,-122.161c12.233,-36.944 19.488,-72.522 46.505,-102.533c31.578,-35.084 74.795,-47.411 120.595,-49.789Z" style="fill:#fefefe;fill-rule:nonzero;"/><path d="M701.333,675.386c0.55,0.189 1.128,0.317 1.65,0.572c7.344,3.622 25.428,43.75 31.255,52.656c7.511,11.477 16.573,23.15 26.461,32.683c27.462,26.472 59.534,40.028 93.684,55.122c71.811,31.75 113.055,107.106 145.061,174.745c-22.55,18.811 -52.033,32.733 -78.417,45.416c-64.966,29.128 -130.911,41.411 -201.733,44.395c-7.296,-14.771 -13.815,-29.876 -19.556,-45.317c-5.744,-15.441 -10.681,-31.135 -14.811,-47.083c-21.95,-82.295 -22.316,-164.222 -4.722,-247.306c4.811,-22.722 9.394,-45.572 21.128,-65.883Z" style="fill:#fefefe;fill-rule:nonzero;"/><path d="M735.277,626.169c38.761,-1.055 81.3,6.317 118.767,16.245c61.783,16.372 125.211,47.127 158.111,104.644c32.328,56.5 29.594,124.178 12.844,185.183c-1.311,4.395 -2.205,9.328 -5.538,12.656c-7.239,-4.944 -20.167,-34.511 -26.012,-43.833c-8.466,-13.774 -17.812,-26.924 -28.038,-39.45c-10.226,-12.526 -21.239,-24.315 -33.039,-35.367c-8.352,-7.837 -17.219,-15.043 -26.6,-21.617c-9.382,-6.574 -19.182,-12.448 -29.4,-17.622c-26.934,-13.372 -55.006,-22.383 -78.689,-41.672c-37.239,-30.339 -57.778,-71.795 -62.406,-119.167Z" style="fill:#fefefe;fill-rule:nonzero;"/><path d="M414.505,236.869c3.572,1.017 6.417,2.606 8.794,5.484c7.312,8.85 12.945,20.15 18.939,29.95c9.256,15.116 19.2,30 30.35,43.8c24.156,29.9 54.184,56.511 89.223,72.783c26.322,12.228 52.7,22.078 75.744,40.333c38.15,30.228 57.839,71.795 63.544,119.434c-3.944,0.322 -7.961,0.344 -11.922,0.488c-57.944,-3.427 -118.894,-14.883 -171.666,-39.611c-48.706,-22.822 -89.35,-59.316 -107.489,-110.944c-15.673,-44.595 -16.117,-118.789 4.483,-161.717Z" style="fill:#fefefe;fill-rule:nonzero;"/><path d="M900.977,151.314c1.339,0.094 3.634,0.183 4.856,0.639c3.022,1.122 4.983,3.672 5.744,6.727c2.206,8.85 -4.872,23.45 -8.55,31.395c-13.294,28.761 -35.839,48.478 -65.294,59.372c-1.6,-0.017 -4.306,0.172 -5.928,-0.272c-3.55,-0.967 -4.656,-2.272 -5.883,-5.7c-2.017,-5.656 1.577,-14.234 3.85,-19.411c14.366,-32.723 37.516,-59.606 71.205,-72.75Z" style="fill:#fefefe;fill-rule:nonzero;"/></g><g transform="matrix(154.321,0,0,154.321,1101.79,1304.64)"></g><text x="329.724px" y="1304.64px" style="font-family:'Optima-Bold', 'Optima';font-weight:700;font-size:154.321px;fill:#677660;">since  1973</text><g><g transform="matrix(370.37,0,0,370.37,3936.47,1187.35)"></g><text x="1500.91px" y="1187.35px" style="font-family:'Optima-Bold', 'Optima';font-weight:700;font-size:370.37px;fill:#677660;">Y<tspan x="1699.8px 2008.32px " y="1187.35px 1187.35px ">ON</tspan>G AN T<tspan x="3504.25px 3689.43px " y="1187.35px 1187.35px ">EA</tspan></text><g transform="matrix(617.284,0,0,617.284,1482.71,692.662)"><path d="M0.057,-0.438l0.287,0l0,0.064l-0.287,0l0,-0.064Zm0.128,-0.194l0.321,0l0,0.065l-0.321,-0l0,-0.065Zm0.346,0.046c0.022,0.084 0.052,0.161 0.092,0.232c0.039,0.071 0.087,0.133 0.144,0.186c0.056,0.053 0.122,0.094 0.196,0.122c-0.005,0.004 -0.011,0.009 -0.017,0.016c-0.006,0.007 -0.012,0.015 -0.017,0.022c-0.005,0.007 -0.01,0.014 -0.013,0.02c-0.076,-0.033 -0.143,-0.077 -0.2,-0.134c-0.056,-0.056 -0.105,-0.122 -0.145,-0.199c-0.04,-0.076 -0.072,-0.16 -0.097,-0.252l0.057,-0.013Zm0.335,0.025l0.061,0.043c-0.027,0.027 -0.057,0.054 -0.091,0.082c-0.033,0.029 -0.066,0.056 -0.099,0.082c-0.033,0.026 -0.065,0.049 -0.094,0.069l-0.047,-0.038c0.029,-0.021 0.059,-0.045 0.092,-0.072c0.033,-0.027 0.066,-0.056 0.097,-0.085c0.031,-0.029 0.058,-0.056 0.081,-0.081Zm-0.399,-0.071l0.071,-0l0,0.621c0,0.022 -0.003,0.039 -0.009,0.05c-0.006,0.011 -0.017,0.02 -0.033,0.026c-0.015,0.005 -0.036,0.008 -0.063,0.009c-0.027,0.001 -0.061,0.002 -0.103,0.002c-0.001,-0.009 -0.004,-0.02 -0.009,-0.033c-0.005,-0.013 -0.01,-0.025 -0.015,-0.034c0.021,0.001 0.041,0.001 0.06,0.002c0.019,0.001 0.035,0.001 0.049,0c0.014,0 0.024,-0 0.029,-0c0.009,-0.001 0.015,-0.003 0.018,-0.006c0.003,-0.003 0.005,-0.008 0.005,-0.017l0,-0.62Zm-0.188,-0.15l0.033,-0.055c0.031,0.007 0.063,0.016 0.098,0.026c0.035,0.01 0.069,0.021 0.103,0.032c0.033,0.012 0.065,0.024 0.095,0.036c0.029,0.013 0.055,0.025 0.076,0.036l-0.034,0.063c-0.021,-0.011 -0.046,-0.023 -0.075,-0.036c-0.029,-0.013 -0.061,-0.025 -0.094,-0.038c-0.034,-0.013 -0.068,-0.025 -0.102,-0.036c-0.035,-0.01 -0.068,-0.02 -0.1,-0.028Zm0.039,0.344l0.014,0l0.013,-0.003l0.044,0.019c-0.018,0.069 -0.042,0.131 -0.072,0.186c-0.031,0.055 -0.065,0.104 -0.104,0.147c-0.039,0.042 -0.081,0.077 -0.124,0.104c-0.004,-0.005 -0.009,-0.011 -0.015,-0.018c-0.006,-0.006 -0.012,-0.012 -0.019,-0.019c-0.007,-0.006 -0.014,-0.011 -0.019,-0.014c0.043,-0.025 0.083,-0.056 0.12,-0.094c0.037,-0.038 0.07,-0.082 0.099,-0.132c0.028,-0.049 0.049,-0.103 0.063,-0.162l0,-0.014Z" style="fill:#677660;fill-rule:nonzero;"/></g><g transform="matrix(617.284,0,0,617.284,2100,692.662)"><path d="M0.096,-0.722l0.808,0l0,0.2l-0.069,0l0,-0.136l-0.672,0l0,0.136l-0.067,0l0,-0.2Zm0.589,0.187l0.078,0.007c-0.015,0.099 -0.039,0.183 -0.071,0.252c-0.032,0.069 -0.074,0.127 -0.125,0.173c-0.052,0.047 -0.114,0.084 -0.187,0.113c-0.073,0.029 -0.16,0.053 -0.259,0.07c-0.002,-0.006 -0.005,-0.013 -0.01,-0.021c-0.005,-0.008 -0.011,-0.016 -0.017,-0.024c-0.006,-0.008 -0.011,-0.015 -0.016,-0.02c0.097,-0.014 0.181,-0.034 0.252,-0.059c0.071,-0.025 0.13,-0.059 0.179,-0.102c0.048,-0.042 0.086,-0.095 0.115,-0.159c0.028,-0.063 0.048,-0.14 0.061,-0.23Zm-0.614,0.1l0.862,-0l0,0.065l-0.862,-0l0,-0.065Zm0.351,-0.391l0.07,-0.018c0.013,0.021 0.026,0.045 0.04,0.071c0.013,0.026 0.023,0.048 0.03,0.065l-0.072,0.023c-0.007,-0.018 -0.017,-0.04 -0.03,-0.067c-0.013,-0.027 -0.025,-0.051 -0.038,-0.074Zm-0.226,0.601l0.045,-0.05c0.057,0.017 0.118,0.037 0.181,0.06c0.063,0.023 0.125,0.047 0.187,0.074c0.061,0.027 0.119,0.054 0.172,0.081c0.053,0.027 0.099,0.054 0.138,0.079l-0.052,0.058c-0.036,-0.025 -0.08,-0.051 -0.132,-0.079c-0.052,-0.027 -0.108,-0.055 -0.169,-0.082c-0.061,-0.027 -0.124,-0.053 -0.187,-0.078c-0.063,-0.024 -0.124,-0.045 -0.183,-0.063Zm0,-0c0.019,-0.025 0.038,-0.053 0.059,-0.085c0.02,-0.031 0.04,-0.065 0.06,-0.1c0.019,-0.035 0.038,-0.069 0.055,-0.104c0.017,-0.035 0.032,-0.069 0.044,-0.1l0.075,0.014c-0.013,0.033 -0.028,0.066 -0.045,0.101c-0.017,0.035 -0.036,0.069 -0.055,0.103c-0.02,0.034 -0.039,0.066 -0.058,0.096c-0.019,0.03 -0.036,0.056 -0.053,0.079l-0.082,-0.004Z" style="fill:#677660;fill-rule:nonzero;"/></g><g transform="matrix(617.284,0,0,617.284,2717.28,692.662)"><path d="M0.156,-0.294l0.683,0l-0,0.062l-0.683,-0l-0,-0.062Zm0.133,0.108l0.065,0.02c-0.019,0.026 -0.041,0.051 -0.068,0.076c-0.026,0.024 -0.054,0.046 -0.083,0.067c-0.028,0.021 -0.057,0.039 -0.085,0.054c-0.004,-0.004 -0.009,-0.009 -0.016,-0.014c-0.007,-0.006 -0.013,-0.012 -0.02,-0.017c-0.007,-0.006 -0.013,-0.011 -0.019,-0.014c0.043,-0.021 0.085,-0.046 0.126,-0.076c0.041,-0.03 0.075,-0.062 0.1,-0.096Zm0.338,0.031l0.05,-0.036c0.029,0.017 0.058,0.037 0.09,0.059c0.03,0.023 0.06,0.045 0.088,0.067c0.027,0.022 0.049,0.042 0.066,0.06l-0.052,0.042c-0.017,-0.019 -0.038,-0.039 -0.065,-0.062c-0.027,-0.023 -0.056,-0.046 -0.087,-0.069c-0.031,-0.023 -0.061,-0.043 -0.09,-0.061Zm-0.104,-0.435c0.025,0.022 0.054,0.044 0.088,0.066c0.035,0.021 0.072,0.042 0.112,0.062c0.04,0.019 0.08,0.037 0.121,0.052c0.041,0.015 0.081,0.028 0.118,0.038c-0.005,0.005 -0.01,0.01 -0.016,0.017c-0.005,0.007 -0.01,0.013 -0.016,0.021c-0.005,0.007 -0.009,0.013 -0.012,0.018c-0.037,-0.011 -0.077,-0.026 -0.118,-0.044c-0.04,-0.018 -0.081,-0.038 -0.121,-0.059c-0.04,-0.022 -0.078,-0.045 -0.114,-0.07c-0.035,-0.024 -0.067,-0.049 -0.094,-0.074l0.052,-0.027Zm-0.027,-0.038l0.063,0.024c-0.049,0.066 -0.114,0.123 -0.197,0.172c-0.082,0.049 -0.173,0.089 -0.274,0.122c-0.003,-0.005 -0.007,-0.011 -0.012,-0.018c-0.005,-0.007 -0.01,-0.013 -0.015,-0.02c-0.005,-0.006 -0.01,-0.011 -0.015,-0.015c0.065,-0.02 0.127,-0.043 0.185,-0.07c0.058,-0.026 0.11,-0.055 0.155,-0.088c0.046,-0.033 0.083,-0.069 0.11,-0.107Zm-0.441,-0.105l0.412,0l-0,0.062l-0.412,0l-0,-0.062Zm0.214,-0.105l0.068,0l-0,0.265l-0.068,0l-0,-0.265Zm0.405,0l0.067,0l-0,0.265l-0.067,0l-0,-0.265Zm-0.148,0.105l0.412,0l-0,0.062l-0.412,0l-0,-0.062Zm-0.062,0.307l0.069,0l-0,0.505l-0.069,0l-0,-0.505Z" style="fill:#677660;fill-rule:nonzero;"/></g><g transform="matrix(617.284,0,0,617.284,3334.57,692.662)"><path d="M0.2,-0.542l0.597,0l0,0.045l-0.597,0l0,-0.045Zm0.061,-0.11l0.481,0l0,0.044l-0.481,0l0,-0.044Zm0.204,-0.058l0.063,0l0,0.195l-0.063,0l0,-0.195Zm-0.014,0.377l0.049,0.018c-0.023,0.019 -0.05,0.038 -0.083,0.055c-0.033,0.017 -0.067,0.032 -0.102,0.045c-0.036,0.013 -0.071,0.025 -0.104,0.035c-0.002,-0.003 -0.005,-0.007 -0.009,-0.012c-0.005,-0.005 -0.009,-0.011 -0.014,-0.016c-0.005,-0.005 -0.009,-0.01 -0.013,-0.013c0.034,-0.008 0.068,-0.017 0.103,-0.028c0.034,-0.011 0.066,-0.024 0.097,-0.038c0.031,-0.015 0.056,-0.03 0.076,-0.046Zm0.297,0.05l0.044,0.028c-0.023,0.016 -0.047,0.031 -0.074,0.046c-0.027,0.014 -0.052,0.026 -0.075,0.035l-0.037,-0.024c0.015,-0.007 0.032,-0.016 0.049,-0.026c0.017,-0.01 0.034,-0.02 0.05,-0.03c0.017,-0.011 0.031,-0.02 0.043,-0.029Zm-0.424,-0.136l-0,0.075l0.351,0l-0,-0.075l-0.351,0Zm-0.058,-0.039l0.469,0l-0,0.152l-0.469,0l-0,-0.152Zm-0.182,-0.335l0.832,0l-0,0.871l-0.066,0l-0,-0.81l-0.702,0l-0,0.81l-0.064,0l-0,-0.871Zm0.039,0.767l0.764,0l0,0.061l-0.764,0l0,-0.061Zm0.352,-0.232l0.041,-0.026c0.032,0.017 0.066,0.037 0.101,0.06c0.035,0.022 0.068,0.044 0.1,0.066c0.031,0.022 0.058,0.042 0.079,0.06l-0.046,0.031c-0.019,-0.018 -0.044,-0.038 -0.075,-0.06c-0.031,-0.023 -0.064,-0.045 -0.099,-0.068c-0.035,-0.023 -0.069,-0.044 -0.101,-0.063Zm-0.172,0.22l-0.002,-0.043l0.026,-0.022l0.204,-0.05c-0.001,0.007 -0.001,0.014 -0.001,0.023c0,0.009 0.001,0.016 0.002,0.021c-0.047,0.013 -0.085,0.024 -0.114,0.033c-0.029,0.008 -0.051,0.014 -0.066,0.019c-0.015,0.005 -0.026,0.008 -0.033,0.011c-0.007,0.003 -0.012,0.005 -0.016,0.008Zm0,0c-0.001,-0.007 -0.004,-0.014 -0.008,-0.023c-0.004,-0.009 -0.008,-0.017 -0.011,-0.022c0.007,-0.003 0.016,-0.008 0.025,-0.015c0.009,-0.007 0.014,-0.02 0.014,-0.038l0,-0.124l0.054,0.001l0,0.173c0,0 -0.004,0.002 -0.011,0.005c-0.008,0.003 -0.017,0.007 -0.026,0.012c-0.009,0.005 -0.018,0.01 -0.025,0.016c-0.008,0.005 -0.012,0.01 -0.012,0.015Z" style="fill:#677660;fill-rule:nonzero;"/></g><g transform="matrix(617.284,0,0,617.284,3951.85,692.662)"></g></g></g></svg>